<svg width="194" height="58" viewBox="0 0 194 58" fill="none" xmlns="http://www.w3.org/2000/svg">
<path fill-rule="evenodd" clip-rule="evenodd" d="M28.5242 13.5572C31.7389 14.8548 34.7569 17.7523 34.7569 17.7523C34.7569 17.7523 34.06 17.5938 32.8391 17.153C31.6182 16.7123 27.6273 15.9382 24.3291 16.4339C21.0309 16.9296 18.5815 17.879 15.6992 20.1495C12.8168 22.4201 11.0559 24.5746 9.82601 28.3C8.59607 32.0255 8.78682 35.2849 10.0657 39.447C11.3446 43.6091 13.6012 46.5552 17.1375 49.6351C20.6738 52.715 25.4156 54.6638 27.805 55.1487C30.1944 55.6336 34.0377 55.5083 34.0377 55.5083C22.7469 59.8358 11.9845 55.0747 6.58978 49.2756C3.52348 45.9794 1.57941 41.8869 0.928195 39.1436C0.276985 36.4002 -0.451561 32.3751 0.357055 28.1802C1.16567 23.9853 2.57771 20.7604 5.99048 17.5126C9.40325 14.2649 13.2072 12.9592 17.4971 12.3586C21.7869 11.7581 25.3095 12.2597 28.5242 13.5572Z" fill="white"/>
<path fill-rule="evenodd" clip-rule="evenodd" d="M28.5242 13.5572C31.7389 14.8548 34.7569 17.7523 34.7569 17.7523C34.7569 17.7523 34.06 17.5938 32.8391 17.153C31.6182 16.7123 27.6273 15.9382 24.3291 16.4339C21.0309 16.9296 18.5815 17.879 15.6992 20.1495C12.8168 22.4201 11.0559 24.5746 9.82601 28.3C8.59607 32.0255 8.78682 35.2849 10.0657 39.447C11.3446 43.6091 13.6012 46.5552 17.1375 49.6351C20.6738 52.715 25.4156 54.6638 27.805 55.1487C30.1944 55.6336 34.0377 55.5083 34.0377 55.5083C22.7469 59.8358 11.9845 55.0747 6.58978 49.2756C3.52348 45.9794 1.57941 41.8869 0.928195 39.1436C0.276985 36.4002 -0.451561 32.3751 0.357055 28.1802C1.16567 23.9853 2.57771 20.7604 5.99048 17.5126C9.40325 14.2649 13.2072 12.9592 17.4971 12.3586C21.7869 11.7581 25.3095 12.2597 28.5242 13.5572Z" fill="white"/>
<path fill-rule="evenodd" clip-rule="evenodd" d="M16.2985 35.6115C13.9496 30.8426 15.6992 23.9496 15.6992 23.9496C15.6992 23.9496 12.4629 26.904 12.4629 33.5739C12.4629 35.138 12.8876 37.0244 13.6615 39.0874C14.4355 41.1505 15.4059 42.9345 17.1375 44.9606C18.869 46.9867 21.2975 48.8873 23.9695 50.1146C26.6415 51.3419 28.4761 51.6766 31.281 51.9125C34.0858 52.1483 37.9352 51.8751 38.4726 51.433C38.8471 51.1249 39.0598 50.8608 39.309 50.5514C39.4174 50.4168 39.5327 50.2736 39.6712 50.1146C40.1281 49.5898 42.5824 45.8246 44.1047 42.9421C45.6269 40.0595 47.7018 35.1321 47.7018 35.1321C47.7018 35.1321 46.0422 37.4144 44.7053 38.608C43.3684 39.8016 41.1011 41.2103 38.4726 42.2038C35.844 43.1973 33.4706 43.8962 30.2022 43.6421C26.9338 43.3881 23.1253 42.3087 21.1027 41.0428C19.0801 39.7769 17.7263 38.5105 16.2985 35.6115Z" fill="white"/>
<path fill-rule="evenodd" clip-rule="evenodd" d="M16.2985 35.6115C13.9496 30.8426 15.6992 23.9496 15.6992 23.9496C15.6992 23.9496 12.4629 26.904 12.4629 33.5739C12.4629 35.138 12.8876 37.0244 13.6615 39.0874C14.4355 41.1505 15.4059 42.9345 17.1375 44.9606C18.869 46.9867 21.2975 48.8873 23.9695 50.1146C26.6415 51.3419 28.4761 51.6766 31.281 51.9125C34.0858 52.1483 37.9352 51.8751 38.4726 51.433C38.8471 51.1249 39.0598 50.8608 39.309 50.5514C39.4174 50.4168 39.5327 50.2736 39.6712 50.1146C40.1281 49.5898 42.5824 45.8246 44.1047 42.9421C45.6269 40.0595 47.7018 35.1321 47.7018 35.1321C47.7018 35.1321 46.0422 37.4144 44.7053 38.608C43.3684 39.8016 41.1011 41.2103 38.4726 42.2038C35.844 43.1973 33.4706 43.8962 30.2022 43.6421C26.9338 43.3881 23.1253 42.3087 21.1027 41.0428C19.0801 39.7769 17.7263 38.5105 16.2985 35.6115Z" fill="white"/>
<path fill-rule="evenodd" clip-rule="evenodd" d="M15.6992 8.76283C7.06922 10.3191 0.357055 18.5914 0.357055 18.5914C0.357055 18.5914 0.578236 12.8625 6.45138 6.96493C12.3245 1.0674 16.7547 -0.14467 24.0894 0.0130448C31.424 0.17076 38.5437 4.18584 42.9074 9.84158C47.271 15.4973 48.5001 22.7865 47.4621 27.5809C46.4241 32.3753 43.8663 35.6115 40.2705 38.1286C36.6747 40.6456 31.281 41.3648 31.281 41.3648C31.281 41.3648 37.8559 37.0706 39.6712 32.7348C41.4865 28.3991 41.2945 19.7561 35.8356 14.7558C30.3768 9.75558 24.3291 7.20654 15.6992 8.76283Z" fill="white"/>
<path fill-rule="evenodd" clip-rule="evenodd" d="M15.6992 8.76283C7.06922 10.3191 0.357055 18.5914 0.357055 18.5914C0.357055 18.5914 0.578236 12.8625 6.45138 6.96493C12.3245 1.0674 16.7547 -0.14467 24.0894 0.0130448C31.424 0.17076 38.5437 4.18584 42.9074 9.84158C47.271 15.4973 48.5001 22.7865 47.4621 27.5809C46.4241 32.3753 43.8663 35.6115 40.2705 38.1286C36.6747 40.6456 31.281 41.3648 31.281 41.3648C31.281 41.3648 37.8559 37.0706 39.6712 32.7348C41.4865 28.3991 41.2945 19.7561 35.8356 14.7558C30.3768 9.75558 24.3291 7.20654 15.6992 8.76283Z" fill="white"/>
<path d="M60.8955 24.9888C60.7604 24.9888 60.6928 24.9212 60.6928 24.7861V13.2758H57.0452C56.9101 13.2758 56.8426 13.2083 56.8426 13.0732V11.9181C56.8426 11.783 56.9101 11.7154 57.0452 11.7154H66.063C66.1981 11.7154 66.2656 11.783 66.2656 11.9181V13.0732C66.2656 13.2083 66.1981 13.2758 66.063 13.2758H62.4153V24.7861C62.4153 24.9212 62.3478 24.9888 62.2127 24.9888H60.8955ZM75.0076 24.9888C74.8725 24.9888 74.8049 24.9212 74.8049 24.7861V18.3217C74.8049 17.6597 74.6698 17.1734 74.3996 16.8627C74.1294 16.5384 73.7174 16.3763 73.1635 16.3763C72.6231 16.3763 72.076 16.5452 71.5221 16.8829C70.9682 17.2072 70.367 17.7205 69.7185 18.423L69.7388 16.8424C70.1846 16.3696 70.6101 15.9913 71.0154 15.7076C71.4207 15.4104 71.826 15.1942 72.2313 15.0591C72.6501 14.924 73.0892 14.8565 73.5485 14.8565C74.5212 14.8565 75.2575 15.1402 75.7574 15.7076C76.2707 16.275 76.5274 17.1193 76.5274 18.2407V24.7861C76.5274 24.9212 76.4599 24.9888 76.3248 24.9888H75.0076ZM68.5026 24.9888C68.3675 24.9888 68.3 24.9212 68.3 24.7861V11.3507C68.3 11.2156 68.3675 11.148 68.5026 11.148H69.8198C69.9549 11.148 70.0225 11.2156 70.0225 11.3507V24.7861C70.0225 24.9212 69.9549 24.9888 69.8198 24.9888H68.5026ZM83.3295 25.2319C82.0326 25.2319 81.0329 24.928 80.3304 24.32C79.6414 23.7121 79.2969 22.8137 79.2969 21.6248V18.7878C79.2969 17.5044 79.6414 16.5317 80.3304 15.8697C81.0194 15.1942 82.0191 14.8565 83.3295 14.8565C84.64 14.8565 85.6329 15.1875 86.3084 15.8494C86.9974 16.4979 87.3419 17.4436 87.3419 18.6865V20.2671C87.3419 20.4022 87.2744 20.4698 87.1393 20.4698H81.0194V21.1182C81.0194 22.0234 81.2085 22.6854 81.5868 23.1042C81.965 23.5095 82.5797 23.7121 83.4308 23.7121C84.0658 23.7121 84.5522 23.6108 84.8899 23.4081C85.2411 23.192 85.4168 22.8812 85.4168 22.476C85.4168 22.3274 85.4911 22.253 85.6397 22.253H86.9569C87.065 22.253 87.1325 22.3138 87.1595 22.4354C87.2136 23.3001 86.8961 23.9823 86.2071 24.4822C85.5181 24.982 84.5589 25.2319 83.3295 25.2319ZM81.0194 18.9904H85.6194V18.8689C85.6194 18.0177 85.4303 17.3895 85.052 16.9842C84.6737 16.579 84.1063 16.3763 83.3498 16.3763C82.5662 16.3763 81.9785 16.5857 81.5868 17.0045C81.2085 17.4233 81.0194 18.0515 81.0194 18.8891V18.9904ZM90.2713 24.9888C90.1362 24.9888 90.0686 24.9212 90.0686 24.7861V17.5111C90.0686 17.1329 90.0551 16.7681 90.0281 16.4168C90.0146 16.0521 89.9808 15.6873 89.9268 15.3225C89.8997 15.1739 89.9673 15.0996 90.1294 15.0996H91.3655C91.5006 15.0996 91.5749 15.1604 91.5885 15.282C91.6425 15.5387 91.683 15.8359 91.71 16.1737C91.7371 16.4979 91.7506 16.7748 91.7506 17.0045L91.7911 18.0785V24.7861C91.7911 24.9212 91.7236 24.9888 91.5885 24.9888H90.2713ZM91.5682 18.6865L91.5277 17.0248C91.8114 16.606 92.1356 16.2345 92.5004 15.9102C92.8786 15.586 93.2569 15.3293 93.6352 15.1402C94.027 14.951 94.385 14.8565 94.7092 14.8565C94.9524 14.8565 95.1348 14.8767 95.2564 14.9173C95.3644 14.9443 95.4252 15.0118 95.4387 15.1199C95.4658 15.4036 95.4725 15.6941 95.459 15.9913C95.459 16.2885 95.4387 16.5722 95.3982 16.8424C95.3712 16.991 95.2834 17.045 95.1348 17.0045C95.0267 16.9775 94.9119 16.9572 94.7903 16.9437C94.6687 16.9302 94.5403 16.9235 94.4052 16.9235C94.0675 16.9235 93.7297 16.9978 93.392 17.1464C93.0543 17.295 92.73 17.5044 92.4193 17.7746C92.1086 18.0313 91.8249 18.3352 91.5682 18.6865ZM97.4945 24.9888C97.3594 24.9888 97.2918 24.9212 97.2918 24.7861V17.5719C97.2918 17.2072 97.2783 16.8289 97.2513 16.4371C97.2378 16.0318 97.204 15.667 97.15 15.3428C97.123 15.1807 97.1973 15.0996 97.3729 15.0996H98.5888C98.7104 15.0996 98.7779 15.1469 98.7914 15.2415C98.8184 15.4441 98.8522 15.6603 98.8927 15.89C98.9333 16.1196 98.9603 16.356 98.9738 16.5992C99.5817 15.9913 100.156 15.5522 100.696 15.282C101.237 14.9983 101.818 14.8565 102.439 14.8565C103.128 14.8565 103.682 15.0186 104.101 15.3428C104.533 15.6535 104.837 16.1196 105.013 16.7411C105.661 16.0791 106.262 15.5995 106.816 15.3023C107.37 15.0051 107.971 14.8565 108.62 14.8565C109.525 14.8565 110.207 15.1402 110.666 15.7076C111.139 16.275 111.376 17.1126 111.376 18.2204V24.7861C111.376 24.9212 111.308 24.9888 111.173 24.9888H109.856C109.721 24.9888 109.653 24.9212 109.653 24.7861V18.3217C109.653 17.6732 109.532 17.1869 109.288 16.8627C109.059 16.5384 108.694 16.3763 108.194 16.3763C107.748 16.3763 107.289 16.5182 106.816 16.8019C106.357 17.0721 105.816 17.5044 105.195 18.0988V24.7861C105.195 24.9212 105.127 24.9888 104.992 24.9888H103.675C103.54 24.9888 103.473 24.9212 103.473 24.7861V18.3217C103.473 17.6732 103.351 17.1869 103.108 16.8627C102.878 16.5384 102.513 16.3763 102.013 16.3763C101.568 16.3763 101.108 16.5182 100.635 16.8019C100.176 17.0721 99.6358 17.5044 99.0143 18.0988V24.7861C99.0143 24.9212 98.9468 24.9888 98.8117 24.9888H97.4945ZM120.145 24.9888C120.064 24.9888 120.01 24.9618 119.983 24.9077C119.956 24.8537 119.929 24.7861 119.902 24.7051C119.888 24.597 119.854 24.3673 119.8 24.0161C119.76 23.6513 119.733 23.3271 119.719 23.0434L119.658 22.2733V18.2407C119.658 17.5652 119.523 17.0856 119.253 16.8019C118.983 16.5182 118.51 16.3763 117.835 16.3763C116.619 16.3763 116.011 16.7951 116.011 17.6327C116.011 17.7678 115.95 17.8354 115.828 17.8354H114.491C114.356 17.8354 114.282 17.707 114.268 17.4503C114.2 16.6803 114.498 16.0588 115.16 15.586C115.835 15.0996 116.747 14.8565 117.895 14.8565C119.071 14.8565 119.942 15.1334 120.51 15.6873C121.09 16.2412 121.381 17.0788 121.381 18.2001V22.5368C121.381 23.0096 121.394 23.4351 121.421 23.8134C121.448 24.1782 121.482 24.4957 121.523 24.7659C121.55 24.9145 121.482 24.9888 121.32 24.9888H120.145ZM116.274 25.2319C115.491 25.2319 114.889 24.9955 114.471 24.5227C114.065 24.0498 113.863 23.3608 113.863 22.4557C113.863 21.7532 113.998 21.179 114.268 20.7332C114.552 20.2874 114.998 19.9429 115.606 19.6997C116.227 19.4565 117.051 19.2944 118.078 19.2134L119.983 19.0512V20.3684L118.037 20.5306C117.105 20.6116 116.463 20.7805 116.112 21.0372C115.761 21.2939 115.585 21.7262 115.585 22.3341C115.585 22.7934 115.68 23.1379 115.869 23.3676C116.058 23.5973 116.342 23.7121 116.72 23.7121C117.166 23.7121 117.632 23.5635 118.118 23.2663C118.605 22.9556 119.246 22.3881 120.043 21.564V23.0839C119.571 23.5973 119.125 24.0161 118.706 24.3403C118.301 24.651 117.902 24.8739 117.51 25.009C117.119 25.1576 116.707 25.2319 116.274 25.2319ZM124.626 24.9888C124.491 24.9888 124.423 24.9212 124.423 24.7861V11.3507C124.423 11.2156 124.491 11.148 124.626 11.148H125.943C126.078 11.148 126.146 11.2156 126.146 11.3507V24.7861C126.146 24.9212 126.078 24.9888 125.943 24.9888H124.626ZM133.549 24.9888C133.414 24.9888 133.346 24.9212 133.346 24.7861L133.63 11.9181C133.63 11.783 133.697 11.7154 133.833 11.7154H135.981C136.075 11.7154 136.149 11.7695 136.204 11.8776L139.75 19.8416L143.235 11.8776C143.289 11.7695 143.364 11.7154 143.458 11.7154H145.606C145.741 11.7154 145.809 11.783 145.809 11.9181L146.093 24.7861C146.093 24.9212 146.025 24.9888 145.89 24.9888H144.613C144.478 24.9888 144.411 24.9212 144.411 24.7861L144.208 16.6397C144.195 16.1399 144.195 15.6468 144.208 15.1604C144.235 14.6741 144.255 14.181 144.269 13.6811H144.228C144.026 14.181 143.816 14.6741 143.6 15.1604C143.397 15.6468 143.181 16.1399 142.952 16.6397L139.952 23.1447C139.912 23.2393 139.838 23.2865 139.73 23.2865H139.689C139.581 23.2865 139.507 23.2393 139.466 23.1447L136.426 16.5384C136.21 16.0656 136.001 15.5927 135.798 15.1199C135.609 14.6336 135.42 14.154 135.231 13.6811H135.19C135.217 14.154 135.231 14.6336 135.231 15.1199C135.244 15.6063 135.244 16.0858 135.231 16.5587L135.028 24.7861C135.028 24.9212 134.961 24.9888 134.826 24.9888H133.549ZM152.933 25.2319C151.569 25.2319 150.528 24.901 149.812 24.239C149.11 23.577 148.759 22.5705 148.759 21.2196V18.8689C148.759 17.5179 149.11 16.5114 149.812 15.8494C150.515 15.1875 151.555 14.8565 152.933 14.8565C154.298 14.8565 155.331 15.1875 156.034 15.8494C156.75 16.5114 157.108 17.5179 157.108 18.8689V21.2196C157.108 22.5705 156.756 23.577 156.054 24.239C155.351 24.901 154.311 25.2319 152.933 25.2319ZM152.933 23.7121C153.798 23.7121 154.419 23.4959 154.797 23.0636C155.189 22.6178 155.385 21.9491 155.385 21.0574V19.031C155.385 18.1393 155.189 17.4774 154.797 17.045C154.419 16.5992 153.798 16.3763 152.933 16.3763C152.068 16.3763 151.44 16.5992 151.048 17.045C150.67 17.4774 150.481 18.1393 150.481 19.031V21.0574C150.481 21.9491 150.67 22.6178 151.048 23.0636C151.44 23.4959 152.068 23.7121 152.933 23.7121ZM163.352 25.2319C162.663 25.2319 162.109 25.1171 161.69 24.8874C161.285 24.6443 160.988 24.2863 160.798 23.8134C160.623 23.3406 160.535 22.7529 160.535 22.0504V16.579H158.975C158.84 16.579 158.772 16.5114 158.772 16.3763V15.3023C158.772 15.1672 158.84 15.0996 158.975 15.0996H160.576L160.798 12.6679C160.812 12.5328 160.886 12.4652 161.021 12.4652H162.035C162.17 12.4652 162.237 12.5328 162.237 12.6679L162.257 15.0996H165.277C165.412 15.0996 165.48 15.1672 165.48 15.3023V16.3763C165.48 16.5114 165.412 16.579 165.277 16.579H162.257V22.0099C162.257 22.6448 162.366 23.0907 162.582 23.3473C162.811 23.604 163.196 23.7324 163.737 23.7324C164.007 23.7324 164.277 23.7053 164.547 23.6513C164.818 23.5838 165.054 23.5027 165.257 23.4081C165.419 23.3406 165.5 23.3879 165.5 23.55V24.6645C165.5 24.7726 165.446 24.8469 165.338 24.8874C165.095 24.982 164.811 25.0631 164.487 25.1306C164.162 25.1982 163.784 25.2319 163.352 25.2319ZM167.886 24.9888C167.751 24.9888 167.684 24.9212 167.684 24.7861V15.3023C167.684 15.1672 167.751 15.0996 167.886 15.0996H169.204C169.339 15.0996 169.406 15.1672 169.406 15.3023V24.7861C169.406 24.9212 169.339 24.9888 169.204 24.9888H167.886ZM168.555 13.4379C168.163 13.4379 167.88 13.3366 167.704 13.134C167.528 12.9178 167.44 12.6476 167.44 12.3234V12.1207C167.44 11.7965 167.528 11.5331 167.704 11.3304C167.88 11.1143 168.163 11.0062 168.555 11.0062C168.947 11.0062 169.231 11.1143 169.406 11.3304C169.582 11.5331 169.67 11.7965 169.67 12.1207V12.3234C169.67 12.6476 169.582 12.9178 169.406 13.134C169.231 13.3366 168.947 13.4379 168.555 13.4379ZM176.364 25.2319C175 25.2319 173.959 24.901 173.243 24.239C172.541 23.577 172.19 22.5705 172.19 21.2196V18.8689C172.19 17.5179 172.541 16.5114 173.243 15.8494C173.946 15.1875 174.986 14.8565 176.364 14.8565C177.729 14.8565 178.762 15.1875 179.465 15.8494C180.181 16.5114 180.539 17.5179 180.539 18.8689V21.2196C180.539 22.5705 180.187 23.577 179.485 24.239C178.782 24.901 177.742 25.2319 176.364 25.2319ZM176.364 23.7121C177.229 23.7121 177.85 23.4959 178.228 23.0636C178.62 22.6178 178.816 21.9491 178.816 21.0574V19.031C178.816 18.1393 178.62 17.4774 178.228 17.045C177.85 16.5992 177.229 16.3763 176.364 16.3763C175.499 16.3763 174.871 16.5992 174.479 17.045C174.101 17.4774 173.912 18.1393 173.912 19.031V21.0574C173.912 21.9491 174.101 22.6178 174.479 23.0636C174.871 23.4959 175.499 23.7121 176.364 23.7121ZM190.025 24.9888C189.89 24.9888 189.822 24.9212 189.822 24.7861V18.3217C189.822 17.6462 189.681 17.1531 189.397 16.8424C189.127 16.5317 188.715 16.3763 188.161 16.3763C187.634 16.3763 187.114 16.5317 186.6 16.8424C186.087 17.1531 185.445 17.6868 184.675 18.4433L184.695 16.8829C185.155 16.3966 185.587 16.0048 185.992 15.7076C186.411 15.4104 186.823 15.1942 187.229 15.0591C187.647 14.924 188.086 14.8565 188.546 14.8565C189.518 14.8565 190.261 15.1402 190.775 15.7076C191.288 16.275 191.545 17.1193 191.545 18.2407V24.7861C191.545 24.9212 191.477 24.9888 191.342 24.9888H190.025ZM183.52 24.9888C183.385 24.9888 183.317 24.9212 183.317 24.7861V17.5719C183.317 17.2207 183.297 16.8289 183.257 16.3966C183.23 15.9508 183.203 15.6063 183.176 15.3631C183.149 15.1875 183.216 15.0996 183.378 15.0996H184.614C184.736 15.0996 184.81 15.1672 184.837 15.3023C184.864 15.4104 184.891 15.5792 184.918 15.8089C184.945 16.0386 184.972 16.2817 184.999 16.5384C185.026 16.7816 185.04 16.991 185.04 17.1666V17.6935V24.7861C185.04 24.9212 184.972 24.9888 184.837 24.9888H183.52ZM62.3343 44.2319C61.3481 44.2319 60.5037 44.0428 59.8012 43.6645C59.0987 43.2863 58.5583 42.7459 58.18 42.0434C57.8018 41.3274 57.6126 40.4695 57.6126 39.4698V35.2345C57.6126 33.7484 58.0652 32.5865 58.9703 31.7489C59.8755 30.8978 61.1184 30.4723 62.699 30.4723C63.7663 30.4723 64.685 30.6547 65.455 31.0194C66.2386 31.3707 66.8195 31.8705 67.1978 32.519C67.5896 33.1675 67.7179 33.9375 67.5828 34.8292C67.5693 34.9643 67.495 35.0318 67.3599 35.0318H66.0427C65.8941 35.0318 65.8333 34.9643 65.8603 34.8292C65.9008 34.2077 65.8063 33.6876 65.5766 33.2688C65.3469 32.85 64.9957 32.5325 64.5229 32.3164C64.05 32.1002 63.4556 31.9921 62.7396 31.9921C61.6183 31.9921 60.7671 32.2623 60.1862 32.8027C59.6188 33.3431 59.3351 34.1469 59.3351 35.2142V39.49C59.3351 40.5708 59.6053 41.3814 60.1457 41.9218C60.6861 42.4487 61.5034 42.7121 62.5977 42.7121C63.719 42.7121 64.5701 42.4351 65.1511 41.8812C65.7455 41.3274 66.0427 40.5303 66.0427 39.49V38.72H62.8814C62.7463 38.72 62.6788 38.6524 62.6788 38.5173V37.423C62.6788 37.2879 62.7463 37.2204 62.8814 37.2204H67.441C67.5761 37.2204 67.6436 37.2879 67.6436 37.423V41.4152C67.6436 41.834 67.6504 42.2393 67.6639 42.631C67.6909 43.0093 67.7314 43.3876 67.7855 43.7659C67.799 43.8334 67.7855 43.8874 67.7449 43.928C67.7179 43.9685 67.6706 43.9888 67.6031 43.9888H66.529C66.475 43.9888 66.4277 43.9753 66.3872 43.9482C66.3467 43.9212 66.3196 43.8807 66.3061 43.8267C66.2791 43.651 66.2521 43.4551 66.2251 43.239C66.1981 43.0228 66.1778 42.7932 66.1643 42.55H66.144C65.8873 42.9283 65.5631 43.2457 65.1713 43.5024C64.793 43.7456 64.3607 43.928 63.8744 44.0496C63.4015 44.1712 62.8882 44.2319 62.3343 44.2319ZM71.0951 43.9888C70.96 43.9888 70.8924 43.9212 70.8924 43.7861V36.5111C70.8924 36.1329 70.8789 35.7681 70.8519 35.4168C70.8384 35.0521 70.8046 34.6873 70.7506 34.3225C70.7236 34.1739 70.7911 34.0996 70.9532 34.0996H72.1894C72.3245 34.0996 72.3988 34.1604 72.4123 34.282C72.4663 34.5387 72.5068 34.8359 72.5339 35.1737C72.5609 35.4979 72.5744 35.7748 72.5744 36.0045L72.6149 37.0785V43.7861C72.6149 43.9212 72.5474 43.9888 72.4123 43.9888H71.0951ZM72.392 37.6865L72.3515 36.0248C72.6352 35.606 72.9594 35.2345 73.3242 34.9102C73.7025 34.586 74.0807 34.3293 74.459 34.1402C74.8508 33.951 75.2088 33.8565 75.533 33.8565C75.7762 33.8565 75.9586 33.8767 76.0802 33.9173C76.1882 33.9443 76.249 34.0118 76.2626 34.1199C76.2896 34.4036 76.2963 34.6941 76.2828 34.9913C76.2828 35.2885 76.2626 35.5722 76.222 35.8424C76.195 35.991 76.1072 36.045 75.9586 36.0045C75.8505 35.9775 75.7357 35.9572 75.6141 35.9437C75.4925 35.9302 75.3642 35.9235 75.2291 35.9235C74.8913 35.9235 74.5536 35.9978 74.2158 36.1464C73.8781 36.295 73.5538 36.5044 73.2431 36.7746C72.9324 37.0313 72.6487 37.3352 72.392 37.6865ZM81.8288 44.2319C80.4643 44.2319 79.4241 43.901 78.7081 43.239C78.0056 42.577 77.6543 41.5705 77.6543 40.2196V37.8689C77.6543 36.5179 78.0056 35.5114 78.7081 34.8494C79.4106 34.1875 80.4508 33.8565 81.8288 33.8565C83.1933 33.8565 84.2268 34.1875 84.9293 34.8494C85.6453 35.5114 86.0033 36.5179 86.0033 37.8689V40.2196C86.0033 41.5705 85.6521 42.577 84.9496 43.239C84.2471 43.901 83.2068 44.2319 81.8288 44.2319ZM81.8288 42.7121C82.6935 42.7121 83.3149 42.4959 83.6932 42.0636C84.085 41.6178 84.2808 40.9491 84.2808 40.0574V38.031C84.2808 37.1393 84.085 36.4774 83.6932 36.045C83.3149 35.5992 82.6935 35.3763 81.8288 35.3763C80.9642 35.3763 80.336 35.5992 79.9442 36.045C79.5659 36.4774 79.3768 37.1393 79.3768 38.031V40.0574C79.3768 40.9491 79.5659 41.6178 79.9442 42.0636C80.336 42.4959 80.9642 42.7121 81.8288 42.7121ZM91.4572 44.2319C90.5926 44.2319 89.9306 43.9415 89.4713 43.3606C89.0119 42.7796 88.7823 41.942 88.7823 40.8478V34.3023C88.7823 34.1672 88.8498 34.0996 88.9849 34.0996H90.3021C90.4372 34.0996 90.5048 34.1672 90.5048 34.3023V40.7667C90.5048 41.4287 90.6196 41.9218 90.8493 42.246C91.0924 42.5567 91.464 42.7121 91.9638 42.7121C92.4637 42.7121 92.9635 42.5567 93.4634 42.246C93.9768 41.9353 94.6117 41.3949 95.3683 40.6248L95.3278 42.2257C94.8954 42.6716 94.4631 43.0431 94.0308 43.3403C93.5985 43.6375 93.1662 43.8604 92.7339 44.009C92.3151 44.1576 91.8895 44.2319 91.4572 44.2319ZM95.5101 43.9888C95.3615 43.9888 95.2805 43.9212 95.267 43.7861C95.2264 43.5294 95.1927 43.266 95.1656 42.9958C95.1386 42.7256 95.1184 42.4487 95.1048 42.165L95.0035 41.3138V34.3023C95.0035 34.1672 95.0711 34.0996 95.2062 34.0996H96.5234C96.6585 34.0996 96.726 34.1672 96.726 34.3023V41.5165C96.726 41.8812 96.7328 42.2595 96.7463 42.6513C96.7733 43.0431 96.8138 43.4214 96.8679 43.7861C96.8949 43.9212 96.8206 43.9888 96.645 43.9888H95.5101ZM104.203 44.2319C103.69 44.2319 103.156 44.1644 102.603 44.0293C102.049 43.8942 101.603 43.7118 101.265 43.4822L101.204 42.0231C101.596 42.2393 102.028 42.4081 102.501 42.5297C102.974 42.6513 103.42 42.7121 103.839 42.7121C104.622 42.7121 105.196 42.4824 105.561 42.0231C105.926 41.5638 106.108 40.8748 106.108 39.9561V37.727C106.108 36.9164 105.967 36.322 105.683 35.9437C105.399 35.5654 104.98 35.3763 104.426 35.3763C103.954 35.3763 103.474 35.5182 102.988 35.8019C102.515 36.0721 101.887 36.5584 101.103 37.2609V35.6397C101.562 35.2209 101.988 34.8832 102.38 34.6265C102.785 34.3563 103.177 34.1604 103.555 34.0388C103.947 33.9173 104.359 33.8565 104.791 33.8565C105.791 33.8565 106.547 34.1672 107.061 34.7886C107.574 35.4101 107.831 36.3558 107.831 37.6257V40.1588C107.831 41.4692 107.52 42.4757 106.899 43.1782C106.277 43.8807 105.379 44.2319 104.203 44.2319ZM99.9682 47.7377C99.8331 47.7377 99.7655 47.6702 99.7655 47.5351V36.3895C99.7655 36.0788 99.752 35.7343 99.725 35.356C99.698 34.9778 99.6642 34.64 99.6237 34.3428C99.6102 34.1807 99.6777 34.0996 99.8263 34.0996H101.062C101.198 34.0996 101.272 34.1672 101.285 34.3023C101.312 34.3969 101.339 34.532 101.366 34.7076C101.393 34.8832 101.414 35.0588 101.427 35.2345C101.441 35.3966 101.441 35.5114 101.427 35.579L101.488 36.5922V47.5351C101.488 47.6702 101.42 47.7377 101.285 47.7377H99.9682Z" fill="white"/>
<path d="M60.8955 24.9888C60.7604 24.9888 60.6928 24.9212 60.6928 24.7861V13.2758H57.0452C56.9101 13.2758 56.8426 13.2083 56.8426 13.0732V11.9181C56.8426 11.783 56.9101 11.7154 57.0452 11.7154H66.063C66.1981 11.7154 66.2656 11.783 66.2656 11.9181V13.0732C66.2656 13.2083 66.1981 13.2758 66.063 13.2758H62.4153V24.7861C62.4153 24.9212 62.3478 24.9888 62.2127 24.9888H60.8955ZM75.0076 24.9888C74.8725 24.9888 74.8049 24.9212 74.8049 24.7861V18.3217C74.8049 17.6597 74.6698 17.1734 74.3996 16.8627C74.1294 16.5384 73.7174 16.3763 73.1635 16.3763C72.6231 16.3763 72.076 16.5452 71.5221 16.8829C70.9682 17.2072 70.367 17.7205 69.7185 18.423L69.7388 16.8424C70.1846 16.3696 70.6101 15.9913 71.0154 15.7076C71.4207 15.4104 71.826 15.1942 72.2313 15.0591C72.6501 14.924 73.0892 14.8565 73.5485 14.8565C74.5212 14.8565 75.2575 15.1402 75.7574 15.7076C76.2707 16.275 76.5274 17.1193 76.5274 18.2407V24.7861C76.5274 24.9212 76.4599 24.9888 76.3248 24.9888H75.0076ZM68.5026 24.9888C68.3675 24.9888 68.3 24.9212 68.3 24.7861V11.3507C68.3 11.2156 68.3675 11.148 68.5026 11.148H69.8198C69.9549 11.148 70.0225 11.2156 70.0225 11.3507V24.7861C70.0225 24.9212 69.9549 24.9888 69.8198 24.9888H68.5026ZM83.3295 25.2319C82.0326 25.2319 81.0329 24.928 80.3304 24.32C79.6414 23.7121 79.2969 22.8137 79.2969 21.6248V18.7878C79.2969 17.5044 79.6414 16.5317 80.3304 15.8697C81.0194 15.1942 82.0191 14.8565 83.3295 14.8565C84.64 14.8565 85.6329 15.1875 86.3084 15.8494C86.9974 16.4979 87.3419 17.4436 87.3419 18.6865V20.2671C87.3419 20.4022 87.2744 20.4698 87.1393 20.4698H81.0194V21.1182C81.0194 22.0234 81.2085 22.6854 81.5868 23.1042C81.965 23.5095 82.5797 23.7121 83.4308 23.7121C84.0658 23.7121 84.5522 23.6108 84.8899 23.4081C85.2411 23.192 85.4168 22.8812 85.4168 22.476C85.4168 22.3274 85.4911 22.253 85.6397 22.253H86.9569C87.065 22.253 87.1325 22.3138 87.1595 22.4354C87.2136 23.3001 86.8961 23.9823 86.2071 24.4822C85.5181 24.982 84.5589 25.2319 83.3295 25.2319ZM81.0194 18.9904H85.6194V18.8689C85.6194 18.0177 85.4303 17.3895 85.052 16.9842C84.6737 16.579 84.1063 16.3763 83.3498 16.3763C82.5662 16.3763 81.9785 16.5857 81.5868 17.0045C81.2085 17.4233 81.0194 18.0515 81.0194 18.8891V18.9904ZM90.2713 24.9888C90.1362 24.9888 90.0686 24.9212 90.0686 24.7861V17.5111C90.0686 17.1329 90.0551 16.7681 90.0281 16.4168C90.0146 16.0521 89.9808 15.6873 89.9268 15.3225C89.8997 15.1739 89.9673 15.0996 90.1294 15.0996H91.3655C91.5006 15.0996 91.5749 15.1604 91.5885 15.282C91.6425 15.5387 91.683 15.8359 91.71 16.1737C91.7371 16.4979 91.7506 16.7748 91.7506 17.0045L91.7911 18.0785V24.7861C91.7911 24.9212 91.7236 24.9888 91.5885 24.9888H90.2713ZM91.5682 18.6865L91.5277 17.0248C91.8114 16.606 92.1356 16.2345 92.5004 15.9102C92.8786 15.586 93.2569 15.3293 93.6352 15.1402C94.027 14.951 94.385 14.8565 94.7092 14.8565C94.9524 14.8565 95.1348 14.8767 95.2564 14.9173C95.3644 14.9443 95.4252 15.0118 95.4387 15.1199C95.4658 15.4036 95.4725 15.6941 95.459 15.9913C95.459 16.2885 95.4387 16.5722 95.3982 16.8424C95.3712 16.991 95.2834 17.045 95.1348 17.0045C95.0267 16.9775 94.9119 16.9572 94.7903 16.9437C94.6687 16.9302 94.5403 16.9235 94.4052 16.9235C94.0675 16.9235 93.7297 16.9978 93.392 17.1464C93.0543 17.295 92.73 17.5044 92.4193 17.7746C92.1086 18.0313 91.8249 18.3352 91.5682 18.6865ZM97.4945 24.9888C97.3594 24.9888 97.2918 24.9212 97.2918 24.7861V17.5719C97.2918 17.2072 97.2783 16.8289 97.2513 16.4371C97.2378 16.0318 97.204 15.667 97.15 15.3428C97.123 15.1807 97.1973 15.0996 97.3729 15.0996H98.5888C98.7104 15.0996 98.7779 15.1469 98.7914 15.2415C98.8184 15.4441 98.8522 15.6603 98.8927 15.89C98.9333 16.1196 98.9603 16.356 98.9738 16.5992C99.5817 15.9913 100.156 15.5522 100.696 15.282C101.237 14.9983 101.818 14.8565 102.439 14.8565C103.128 14.8565 103.682 15.0186 104.101 15.3428C104.533 15.6535 104.837 16.1196 105.013 16.7411C105.661 16.0791 106.262 15.5995 106.816 15.3023C107.37 15.0051 107.971 14.8565 108.62 14.8565C109.525 14.8565 110.207 15.1402 110.666 15.7076C111.139 16.275 111.376 17.1126 111.376 18.2204V24.7861C111.376 24.9212 111.308 24.9888 111.173 24.9888H109.856C109.721 24.9888 109.653 24.9212 109.653 24.7861V18.3217C109.653 17.6732 109.532 17.1869 109.288 16.8627C109.059 16.5384 108.694 16.3763 108.194 16.3763C107.748 16.3763 107.289 16.5182 106.816 16.8019C106.357 17.0721 105.816 17.5044 105.195 18.0988V24.7861C105.195 24.9212 105.127 24.9888 104.992 24.9888H103.675C103.54 24.9888 103.473 24.9212 103.473 24.7861V18.3217C103.473 17.6732 103.351 17.1869 103.108 16.8627C102.878 16.5384 102.513 16.3763 102.013 16.3763C101.568 16.3763 101.108 16.5182 100.635 16.8019C100.176 17.0721 99.6358 17.5044 99.0143 18.0988V24.7861C99.0143 24.9212 98.9468 24.9888 98.8117 24.9888H97.4945ZM120.145 24.9888C120.064 24.9888 120.01 24.9618 119.983 24.9077C119.956 24.8537 119.929 24.7861 119.902 24.7051C119.888 24.597 119.854 24.3673 119.8 24.0161C119.76 23.6513 119.733 23.3271 119.719 23.0434L119.658 22.2733V18.2407C119.658 17.5652 119.523 17.0856 119.253 16.8019C118.983 16.5182 118.51 16.3763 117.835 16.3763C116.619 16.3763 116.011 16.7951 116.011 17.6327C116.011 17.7678 115.95 17.8354 115.828 17.8354H114.491C114.356 17.8354 114.282 17.707 114.268 17.4503C114.2 16.6803 114.498 16.0588 115.16 15.586C115.835 15.0996 116.747 14.8565 117.895 14.8565C119.071 14.8565 119.942 15.1334 120.51 15.6873C121.09 16.2412 121.381 17.0788 121.381 18.2001V22.5368C121.381 23.0096 121.394 23.4351 121.421 23.8134C121.448 24.1782 121.482 24.4957 121.523 24.7659C121.55 24.9145 121.482 24.9888 121.32 24.9888H120.145ZM116.274 25.2319C115.491 25.2319 114.889 24.9955 114.471 24.5227C114.065 24.0498 113.863 23.3608 113.863 22.4557C113.863 21.7532 113.998 21.179 114.268 20.7332C114.552 20.2874 114.998 19.9429 115.606 19.6997C116.227 19.4565 117.051 19.2944 118.078 19.2134L119.983 19.0512V20.3684L118.037 20.5306C117.105 20.6116 116.463 20.7805 116.112 21.0372C115.761 21.2939 115.585 21.7262 115.585 22.3341C115.585 22.7934 115.68 23.1379 115.869 23.3676C116.058 23.5973 116.342 23.7121 116.72 23.7121C117.166 23.7121 117.632 23.5635 118.118 23.2663C118.605 22.9556 119.246 22.3881 120.043 21.564V23.0839C119.571 23.5973 119.125 24.0161 118.706 24.3403C118.301 24.651 117.902 24.8739 117.51 25.009C117.119 25.1576 116.707 25.2319 116.274 25.2319ZM124.626 24.9888C124.491 24.9888 124.423 24.9212 124.423 24.7861V11.3507C124.423 11.2156 124.491 11.148 124.626 11.148H125.943C126.078 11.148 126.146 11.2156 126.146 11.3507V24.7861C126.146 24.9212 126.078 24.9888 125.943 24.9888H124.626ZM133.549 24.9888C133.414 24.9888 133.346 24.9212 133.346 24.7861L133.63 11.9181C133.63 11.783 133.697 11.7154 133.833 11.7154H135.981C136.075 11.7154 136.149 11.7695 136.204 11.8776L139.75 19.8416L143.235 11.8776C143.289 11.7695 143.364 11.7154 143.458 11.7154H145.606C145.741 11.7154 145.809 11.783 145.809 11.9181L146.093 24.7861C146.093 24.9212 146.025 24.9888 145.89 24.9888H144.613C144.478 24.9888 144.411 24.9212 144.411 24.7861L144.208 16.6397C144.195 16.1399 144.195 15.6468 144.208 15.1604C144.235 14.6741 144.255 14.181 144.269 13.6811H144.228C144.026 14.181 143.816 14.6741 143.6 15.1604C143.397 15.6468 143.181 16.1399 142.952 16.6397L139.952 23.1447C139.912 23.2393 139.838 23.2865 139.73 23.2865H139.689C139.581 23.2865 139.507 23.2393 139.466 23.1447L136.426 16.5384C136.21 16.0656 136.001 15.5927 135.798 15.1199C135.609 14.6336 135.42 14.154 135.231 13.6811H135.19C135.217 14.154 135.231 14.6336 135.231 15.1199C135.244 15.6063 135.244 16.0858 135.231 16.5587L135.028 24.7861C135.028 24.9212 134.961 24.9888 134.826 24.9888H133.549ZM152.933 25.2319C151.569 25.2319 150.528 24.901 149.812 24.239C149.11 23.577 148.759 22.5705 148.759 21.2196V18.8689C148.759 17.5179 149.11 16.5114 149.812 15.8494C150.515 15.1875 151.555 14.8565 152.933 14.8565C154.298 14.8565 155.331 15.1875 156.034 15.8494C156.75 16.5114 157.108 17.5179 157.108 18.8689V21.2196C157.108 22.5705 156.756 23.577 156.054 24.239C155.351 24.901 154.311 25.2319 152.933 25.2319ZM152.933 23.7121C153.798 23.7121 154.419 23.4959 154.797 23.0636C155.189 22.6178 155.385 21.9491 155.385 21.0574V19.031C155.385 18.1393 155.189 17.4774 154.797 17.045C154.419 16.5992 153.798 16.3763 152.933 16.3763C152.068 16.3763 151.44 16.5992 151.048 17.045C150.67 17.4774 150.481 18.1393 150.481 19.031V21.0574C150.481 21.9491 150.67 22.6178 151.048 23.0636C151.44 23.4959 152.068 23.7121 152.933 23.7121ZM163.352 25.2319C162.663 25.2319 162.109 25.1171 161.69 24.8874C161.285 24.6443 160.988 24.2863 160.798 23.8134C160.623 23.3406 160.535 22.7529 160.535 22.0504V16.579H158.975C158.84 16.579 158.772 16.5114 158.772 16.3763V15.3023C158.772 15.1672 158.84 15.0996 158.975 15.0996H160.576L160.798 12.6679C160.812 12.5328 160.886 12.4652 161.021 12.4652H162.035C162.17 12.4652 162.237 12.5328 162.237 12.6679L162.257 15.0996H165.277C165.412 15.0996 165.48 15.1672 165.48 15.3023V16.3763C165.48 16.5114 165.412 16.579 165.277 16.579H162.257V22.0099C162.257 22.6448 162.366 23.0907 162.582 23.3473C162.811 23.604 163.196 23.7324 163.737 23.7324C164.007 23.7324 164.277 23.7053 164.547 23.6513C164.818 23.5838 165.054 23.5027 165.257 23.4081C165.419 23.3406 165.5 23.3879 165.5 23.55V24.6645C165.5 24.7726 165.446 24.8469 165.338 24.8874C165.095 24.982 164.811 25.0631 164.487 25.1306C164.162 25.1982 163.784 25.2319 163.352 25.2319ZM167.886 24.9888C167.751 24.9888 167.684 24.9212 167.684 24.7861V15.3023C167.684 15.1672 167.751 15.0996 167.886 15.0996H169.204C169.339 15.0996 169.406 15.1672 169.406 15.3023V24.7861C169.406 24.9212 169.339 24.9888 169.204 24.9888H167.886ZM168.555 13.4379C168.163 13.4379 167.88 13.3366 167.704 13.134C167.528 12.9178 167.44 12.6476 167.44 12.3234V12.1207C167.44 11.7965 167.528 11.5331 167.704 11.3304C167.88 11.1143 168.163 11.0062 168.555 11.0062C168.947 11.0062 169.231 11.1143 169.406 11.3304C169.582 11.5331 169.67 11.7965 169.67 12.1207V12.3234C169.67 12.6476 169.582 12.9178 169.406 13.134C169.231 13.3366 168.947 13.4379 168.555 13.4379ZM176.364 25.2319C175 25.2319 173.959 24.901 173.243 24.239C172.541 23.577 172.19 22.5705 172.19 21.2196V18.8689C172.19 17.5179 172.541 16.5114 173.243 15.8494C173.946 15.1875 174.986 14.8565 176.364 14.8565C177.729 14.8565 178.762 15.1875 179.465 15.8494C180.181 16.5114 180.539 17.5179 180.539 18.8689V21.2196C180.539 22.5705 180.187 23.577 179.485 24.239C178.782 24.901 177.742 25.2319 176.364 25.2319ZM176.364 23.7121C177.229 23.7121 177.85 23.4959 178.228 23.0636C178.62 22.6178 178.816 21.9491 178.816 21.0574V19.031C178.816 18.1393 178.62 17.4774 178.228 17.045C177.85 16.5992 177.229 16.3763 176.364 16.3763C175.499 16.3763 174.871 16.5992 174.479 17.045C174.101 17.4774 173.912 18.1393 173.912 19.031V21.0574C173.912 21.9491 174.101 22.6178 174.479 23.0636C174.871 23.4959 175.499 23.7121 176.364 23.7121ZM190.025 24.9888C189.89 24.9888 189.822 24.9212 189.822 24.7861V18.3217C189.822 17.6462 189.681 17.1531 189.397 16.8424C189.127 16.5317 188.715 16.3763 188.161 16.3763C187.634 16.3763 187.114 16.5317 186.6 16.8424C186.087 17.1531 185.445 17.6868 184.675 18.4433L184.695 16.8829C185.155 16.3966 185.587 16.0048 185.992 15.7076C186.411 15.4104 186.823 15.1942 187.229 15.0591C187.647 14.924 188.086 14.8565 188.546 14.8565C189.518 14.8565 190.261 15.1402 190.775 15.7076C191.288 16.275 191.545 17.1193 191.545 18.2407V24.7861C191.545 24.9212 191.477 24.9888 191.342 24.9888H190.025ZM183.52 24.9888C183.385 24.9888 183.317 24.9212 183.317 24.7861V17.5719C183.317 17.2207 183.297 16.8289 183.257 16.3966C183.23 15.9508 183.203 15.6063 183.176 15.3631C183.149 15.1875 183.216 15.0996 183.378 15.0996H184.614C184.736 15.0996 184.81 15.1672 184.837 15.3023C184.864 15.4104 184.891 15.5792 184.918 15.8089C184.945 16.0386 184.972 16.2817 184.999 16.5384C185.026 16.7816 185.04 16.991 185.04 17.1666V17.6935V24.7861C185.04 24.9212 184.972 24.9888 184.837 24.9888H183.52ZM62.3343 44.2319C61.3481 44.2319 60.5037 44.0428 59.8012 43.6645C59.0987 43.2863 58.5583 42.7459 58.18 42.0434C57.8018 41.3274 57.6126 40.4695 57.6126 39.4698V35.2345C57.6126 33.7484 58.0652 32.5865 58.9703 31.7489C59.8755 30.8978 61.1184 30.4723 62.699 30.4723C63.7663 30.4723 64.685 30.6547 65.455 31.0194C66.2386 31.3707 66.8195 31.8705 67.1978 32.519C67.5896 33.1675 67.7179 33.9375 67.5828 34.8292C67.5693 34.9643 67.495 35.0318 67.3599 35.0318H66.0427C65.8941 35.0318 65.8333 34.9643 65.8603 34.8292C65.9008 34.2077 65.8063 33.6876 65.5766 33.2688C65.3469 32.85 64.9957 32.5325 64.5229 32.3164C64.05 32.1002 63.4556 31.9921 62.7396 31.9921C61.6183 31.9921 60.7671 32.2623 60.1862 32.8027C59.6188 33.3431 59.3351 34.1469 59.3351 35.2142V39.49C59.3351 40.5708 59.6053 41.3814 60.1457 41.9218C60.6861 42.4487 61.5034 42.7121 62.5977 42.7121C63.719 42.7121 64.5701 42.4351 65.1511 41.8812C65.7455 41.3274 66.0427 40.5303 66.0427 39.49V38.72H62.8814C62.7463 38.72 62.6788 38.6524 62.6788 38.5173V37.423C62.6788 37.2879 62.7463 37.2204 62.8814 37.2204H67.441C67.5761 37.2204 67.6436 37.2879 67.6436 37.423V41.4152C67.6436 41.834 67.6504 42.2393 67.6639 42.631C67.6909 43.0093 67.7314 43.3876 67.7855 43.7659C67.799 43.8334 67.7855 43.8874 67.7449 43.928C67.7179 43.9685 67.6706 43.9888 67.6031 43.9888H66.529C66.475 43.9888 66.4277 43.9753 66.3872 43.9482C66.3467 43.9212 66.3196 43.8807 66.3061 43.8267C66.2791 43.651 66.2521 43.4551 66.2251 43.239C66.1981 43.0228 66.1778 42.7932 66.1643 42.55H66.144C65.8873 42.9283 65.5631 43.2457 65.1713 43.5024C64.793 43.7456 64.3607 43.928 63.8744 44.0496C63.4015 44.1712 62.8882 44.2319 62.3343 44.2319ZM71.0951 43.9888C70.96 43.9888 70.8924 43.9212 70.8924 43.7861V36.5111C70.8924 36.1329 70.8789 35.7681 70.8519 35.4168C70.8384 35.0521 70.8046 34.6873 70.7506 34.3225C70.7236 34.1739 70.7911 34.0996 70.9532 34.0996H72.1894C72.3245 34.0996 72.3988 34.1604 72.4123 34.282C72.4663 34.5387 72.5068 34.8359 72.5339 35.1737C72.5609 35.4979 72.5744 35.7748 72.5744 36.0045L72.6149 37.0785V43.7861C72.6149 43.9212 72.5474 43.9888 72.4123 43.9888H71.0951ZM72.392 37.6865L72.3515 36.0248C72.6352 35.606 72.9594 35.2345 73.3242 34.9102C73.7025 34.586 74.0807 34.3293 74.459 34.1402C74.8508 33.951 75.2088 33.8565 75.533 33.8565C75.7762 33.8565 75.9586 33.8767 76.0802 33.9173C76.1882 33.9443 76.249 34.0118 76.2626 34.1199C76.2896 34.4036 76.2963 34.6941 76.2828 34.9913C76.2828 35.2885 76.2626 35.5722 76.222 35.8424C76.195 35.991 76.1072 36.045 75.9586 36.0045C75.8505 35.9775 75.7357 35.9572 75.6141 35.9437C75.4925 35.9302 75.3642 35.9235 75.2291 35.9235C74.8913 35.9235 74.5536 35.9978 74.2158 36.1464C73.8781 36.295 73.5538 36.5044 73.2431 36.7746C72.9324 37.0313 72.6487 37.3352 72.392 37.6865ZM81.8288 44.2319C80.4643 44.2319 79.4241 43.901 78.7081 43.239C78.0056 42.577 77.6543 41.5705 77.6543 40.2196V37.8689C77.6543 36.5179 78.0056 35.5114 78.7081 34.8494C79.4106 34.1875 80.4508 33.8565 81.8288 33.8565C83.1933 33.8565 84.2268 34.1875 84.9293 34.8494C85.6453 35.5114 86.0033 36.5179 86.0033 37.8689V40.2196C86.0033 41.5705 85.6521 42.577 84.9496 43.239C84.2471 43.901 83.2068 44.2319 81.8288 44.2319ZM81.8288 42.7121C82.6935 42.7121 83.3149 42.4959 83.6932 42.0636C84.085 41.6178 84.2808 40.9491 84.2808 40.0574V38.031C84.2808 37.1393 84.085 36.4774 83.6932 36.045C83.3149 35.5992 82.6935 35.3763 81.8288 35.3763C80.9642 35.3763 80.336 35.5992 79.9442 36.045C79.5659 36.4774 79.3768 37.1393 79.3768 38.031V40.0574C79.3768 40.9491 79.5659 41.6178 79.9442 42.0636C80.336 42.4959 80.9642 42.7121 81.8288 42.7121ZM91.4572 44.2319C90.5926 44.2319 89.9306 43.9415 89.4713 43.3606C89.0119 42.7796 88.7823 41.942 88.7823 40.8478V34.3023C88.7823 34.1672 88.8498 34.0996 88.9849 34.0996H90.3021C90.4372 34.0996 90.5048 34.1672 90.5048 34.3023V40.7667C90.5048 41.4287 90.6196 41.9218 90.8493 42.246C91.0924 42.5567 91.464 42.7121 91.9638 42.7121C92.4637 42.7121 92.9635 42.5567 93.4634 42.246C93.9768 41.9353 94.6117 41.3949 95.3683 40.6248L95.3278 42.2257C94.8954 42.6716 94.4631 43.0431 94.0308 43.3403C93.5985 43.6375 93.1662 43.8604 92.7339 44.009C92.3151 44.1576 91.8895 44.2319 91.4572 44.2319ZM95.5101 43.9888C95.3615 43.9888 95.2805 43.9212 95.267 43.7861C95.2264 43.5294 95.1927 43.266 95.1656 42.9958C95.1386 42.7256 95.1184 42.4487 95.1048 42.165L95.0035 41.3138V34.3023C95.0035 34.1672 95.0711 34.0996 95.2062 34.0996H96.5234C96.6585 34.0996 96.726 34.1672 96.726 34.3023V41.5165C96.726 41.8812 96.7328 42.2595 96.7463 42.6513C96.7733 43.0431 96.8138 43.4214 96.8679 43.7861C96.8949 43.9212 96.8206 43.9888 96.645 43.9888H95.5101ZM104.203 44.2319C103.69 44.2319 103.156 44.1644 102.603 44.0293C102.049 43.8942 101.603 43.7118 101.265 43.4822L101.204 42.0231C101.596 42.2393 102.028 42.4081 102.501 42.5297C102.974 42.6513 103.42 42.7121 103.839 42.7121C104.622 42.7121 105.196 42.4824 105.561 42.0231C105.926 41.5638 106.108 40.8748 106.108 39.9561V37.727C106.108 36.9164 105.967 36.322 105.683 35.9437C105.399 35.5654 104.98 35.3763 104.426 35.3763C103.954 35.3763 103.474 35.5182 102.988 35.8019C102.515 36.0721 101.887 36.5584 101.103 37.2609V35.6397C101.562 35.2209 101.988 34.8832 102.38 34.6265C102.785 34.3563 103.177 34.1604 103.555 34.0388C103.947 33.9173 104.359 33.8565 104.791 33.8565C105.791 33.8565 106.547 34.1672 107.061 34.7886C107.574 35.4101 107.831 36.3558 107.831 37.6257V40.1588C107.831 41.4692 107.52 42.4757 106.899 43.1782C106.277 43.8807 105.379 44.2319 104.203 44.2319ZM99.9682 47.7377C99.8331 47.7377 99.7655 47.6702 99.7655 47.5351V36.3895C99.7655 36.0788 99.752 35.7343 99.725 35.356C99.698 34.9778 99.6642 34.64 99.6237 34.3428C99.6102 34.1807 99.6777 34.0996 99.8263 34.0996H101.062C101.198 34.0996 101.272 34.1672 101.285 34.3023C101.312 34.3969 101.339 34.532 101.366 34.7076C101.393 34.8832 101.414 35.0588 101.427 35.2345C101.441 35.3966 101.441 35.5114 101.427 35.579L101.488 36.5922V47.5351C101.488 47.6702 101.42 47.7377 101.285 47.7377H99.9682Z" fill="white"/>
</svg>
