<svg width="209" height="58" viewBox="0 0 209 58" fill="none" xmlns="http://www.w3.org/2000/svg">
<path fill-rule="evenodd" clip-rule="evenodd" d="M28.5242 13.5572C31.7389 14.8548 34.7569 17.7523 34.7569 17.7523C34.7569 17.7523 34.06 17.5938 32.8391 17.153C31.6182 16.7123 27.6273 15.9382 24.3291 16.4339C21.0309 16.9296 18.5815 17.879 15.6992 20.1495C12.8168 22.4201 11.0559 24.5746 9.82601 28.3C8.59607 32.0255 8.78682 35.2849 10.0657 39.447C11.3446 43.6091 13.6012 46.5552 17.1375 49.6351C20.6738 52.715 25.4156 54.6638 27.805 55.1487C30.1944 55.6336 34.0377 55.5083 34.0377 55.5083C22.7469 59.8358 11.9845 55.0747 6.58978 49.2756C3.52348 45.9794 1.57941 41.8869 0.928195 39.1436C0.276985 36.4002 -0.451561 32.3751 0.357055 28.1802C1.16567 23.9853 2.57771 20.7604 5.99048 17.5126C9.40325 14.2649 13.2072 12.9592 17.4971 12.3586C21.7869 11.7581 25.3095 12.2597 28.5242 13.5572Z" fill="black"/>
<path fill-rule="evenodd" clip-rule="evenodd" d="M28.5242 13.5572C31.7389 14.8548 34.7569 17.7523 34.7569 17.7523C34.7569 17.7523 34.06 17.5938 32.8391 17.153C31.6182 16.7123 27.6273 15.9382 24.3291 16.4339C21.0309 16.9296 18.5815 17.879 15.6992 20.1495C12.8168 22.4201 11.0559 24.5746 9.82601 28.3C8.59607 32.0255 8.78682 35.2849 10.0657 39.447C11.3446 43.6091 13.6012 46.5552 17.1375 49.6351C20.6738 52.715 25.4156 54.6638 27.805 55.1487C30.1944 55.6336 34.0377 55.5083 34.0377 55.5083C22.7469 59.8358 11.9845 55.0747 6.58978 49.2756C3.52348 45.9794 1.57941 41.8869 0.928195 39.1436C0.276985 36.4002 -0.451561 32.3751 0.357055 28.1802C1.16567 23.9853 2.57771 20.7604 5.99048 17.5126C9.40325 14.2649 13.2072 12.9592 17.4971 12.3586C21.7869 11.7581 25.3095 12.2597 28.5242 13.5572Z" fill="#222F4B"/>
<path fill-rule="evenodd" clip-rule="evenodd" d="M16.2985 35.6115C13.9496 30.8426 15.6992 23.9496 15.6992 23.9496C15.6992 23.9496 12.4629 26.904 12.4629 33.5739C12.4629 35.138 12.8876 37.0244 13.6615 39.0874C14.4355 41.1505 15.4059 42.9345 17.1375 44.9606C18.869 46.9867 21.2975 48.8873 23.9695 50.1146C26.6415 51.3419 28.4761 51.6766 31.281 51.9125C34.0858 52.1483 37.9352 51.8751 38.4726 51.433C38.8471 51.1249 39.0598 50.8608 39.309 50.5514C39.4174 50.4168 39.5327 50.2736 39.6712 50.1146C40.1281 49.5898 42.5824 45.8246 44.1047 42.9421C45.6269 40.0595 47.7018 35.1321 47.7018 35.1321C47.7018 35.1321 46.0422 37.4144 44.7053 38.608C43.3684 39.8016 41.1011 41.2103 38.4726 42.2038C35.844 43.1973 33.4706 43.8962 30.2022 43.6421C26.9338 43.3881 23.1253 42.3087 21.1027 41.0428C19.0801 39.7769 17.7263 38.5105 16.2985 35.6115Z" fill="black"/>
<path fill-rule="evenodd" clip-rule="evenodd" d="M16.2985 35.6115C13.9496 30.8426 15.6992 23.9496 15.6992 23.9496C15.6992 23.9496 12.4629 26.904 12.4629 33.5739C12.4629 35.138 12.8876 37.0244 13.6615 39.0874C14.4355 41.1505 15.4059 42.9345 17.1375 44.9606C18.869 46.9867 21.2975 48.8873 23.9695 50.1146C26.6415 51.3419 28.4761 51.6766 31.281 51.9125C34.0858 52.1483 37.9352 51.8751 38.4726 51.433C38.8471 51.1249 39.0598 50.8608 39.309 50.5514C39.4174 50.4168 39.5327 50.2736 39.6712 50.1146C40.1281 49.5898 42.5824 45.8246 44.1047 42.9421C45.6269 40.0595 47.7018 35.1321 47.7018 35.1321C47.7018 35.1321 46.0422 37.4144 44.7053 38.608C43.3684 39.8016 41.1011 41.2103 38.4726 42.2038C35.844 43.1973 33.4706 43.8962 30.2022 43.6421C26.9338 43.3881 23.1253 42.3087 21.1027 41.0428C19.0801 39.7769 17.7263 38.5105 16.2985 35.6115Z" fill="#222F4B"/>
<path fill-rule="evenodd" clip-rule="evenodd" d="M15.6992 8.76283C7.06922 10.3191 0.357055 18.5914 0.357055 18.5914C0.357055 18.5914 0.578236 12.8625 6.45138 6.96493C12.3245 1.0674 16.7547 -0.14467 24.0894 0.0130448C31.424 0.17076 38.5437 4.18584 42.9074 9.84158C47.271 15.4973 48.5001 22.7865 47.4621 27.5809C46.4241 32.3753 43.8663 35.6115 40.2705 38.1286C36.6747 40.6456 31.281 41.3648 31.281 41.3648C31.281 41.3648 37.8559 37.0706 39.6712 32.7348C41.4865 28.3991 41.2945 19.7561 35.8356 14.7558C30.3768 9.75558 24.3291 7.20654 15.6992 8.76283Z" fill="black"/>
<path fill-rule="evenodd" clip-rule="evenodd" d="M15.6992 8.76283C7.06922 10.3191 0.357055 18.5914 0.357055 18.5914C0.357055 18.5914 0.578236 12.8625 6.45138 6.96493C12.3245 1.0674 16.7547 -0.14467 24.0894 0.0130448C31.424 0.17076 38.5437 4.18584 42.9074 9.84158C47.271 15.4973 48.5001 22.7865 47.4621 27.5809C46.4241 32.3753 43.8663 35.6115 40.2705 38.1286C36.6747 40.6456 31.281 41.3648 31.281 41.3648C31.281 41.3648 37.8559 37.0706 39.6712 32.7348C41.4865 28.3991 41.2945 19.7561 35.8356 14.7558C30.3768 9.75558 24.3291 7.20654 15.6992 8.76283Z" fill="#C02D2E"/>
<path d="M61.4125 24.4886C61.2628 24.4886 61.1879 24.4138 61.1879 24.264V11.504H57.1442C56.9945 11.504 56.9196 11.4291 56.9196 11.2793V9.99882C56.9196 9.84906 56.9945 9.77418 57.1442 9.77418H67.1411C67.2908 9.77418 67.3657 9.84906 67.3657 9.99882V11.2793C67.3657 11.4291 67.2908 11.504 67.1411 11.504H63.0974V24.264C63.0974 24.4138 63.0225 24.4886 62.8728 24.4886H61.4125ZM77.0568 24.4886C76.9071 24.4886 76.8322 24.4138 76.8322 24.264V17.0977C76.8322 16.3639 76.6824 15.8247 76.3829 15.4802C76.0834 15.1208 75.6266 14.9411 75.0125 14.9411C74.4135 14.9411 73.8069 15.1283 73.1929 15.5027C72.5789 15.8621 71.9124 16.4313 71.1935 17.21L71.216 15.4578C71.7102 14.9336 72.182 14.5143 72.6313 14.1998C73.0806 13.8703 73.5299 13.6306 73.9792 13.4809C74.4434 13.3311 74.9302 13.2562 75.4394 13.2562C76.5177 13.2562 77.3339 13.5707 77.888 14.1998C78.4572 14.8288 78.7417 15.7648 78.7417 17.0079V24.264C78.7417 24.4138 78.6668 24.4886 78.5171 24.4886H77.0568ZM69.8456 24.4886C69.6959 24.4886 69.621 24.4138 69.621 24.264V9.36981C69.621 9.22004 69.6959 9.14516 69.8456 9.14516H71.3058C71.4556 9.14516 71.5305 9.22004 71.5305 9.36981V24.264C71.5305 24.4138 71.4556 24.4886 71.3058 24.4886H69.8456ZM86.2823 24.7582C84.8446 24.7582 83.7363 24.4213 82.9575 23.7473C82.1937 23.0734 81.8118 22.0774 81.8118 20.7595V17.6144C81.8118 16.1916 82.1937 15.1133 82.9575 14.3795C83.7214 13.6306 84.8296 13.2562 86.2823 13.2562C87.7351 13.2562 88.8358 13.6232 89.5847 14.357C90.3485 15.0759 90.7304 16.1242 90.7304 17.5021V19.2543C90.7304 19.4041 90.6555 19.479 90.5057 19.479H83.7214V20.1979C83.7214 21.2013 83.931 21.9351 84.3504 22.3994C84.7697 22.8487 85.4511 23.0734 86.3947 23.0734C87.0986 23.0734 87.6377 22.961 88.0121 22.7364C88.4015 22.4968 88.5962 22.1523 88.5962 21.703C88.5962 21.5383 88.6786 21.4559 88.8433 21.4559H90.3036C90.4234 21.4559 90.4982 21.5233 90.5282 21.6581C90.5881 22.6166 90.2362 23.3729 89.4724 23.927C88.7085 24.4812 87.6452 24.7582 86.2823 24.7582ZM83.7214 17.8391H88.8209V17.7043C88.8209 16.7607 88.6112 16.0643 88.1919 15.615C87.7725 15.1657 87.1435 14.9411 86.3048 14.9411C85.4362 14.9411 84.7847 15.1732 84.3504 15.6375C83.931 16.1018 83.7214 16.7982 83.7214 17.7267V17.8391ZM93.9778 24.4886C93.828 24.4886 93.7531 24.4138 93.7531 24.264V16.1991C93.7531 15.7798 93.7382 15.3754 93.7082 14.986C93.6932 14.5817 93.6558 14.1773 93.5959 13.7729C93.5659 13.6082 93.6408 13.5258 93.8205 13.5258H95.1909C95.3406 13.5258 95.423 13.5932 95.438 13.728C95.4979 14.0125 95.5428 14.342 95.5728 14.7164C95.6027 15.0759 95.6177 15.3829 95.6177 15.6375L95.6626 16.8281V24.264C95.6626 24.4138 95.5878 24.4886 95.438 24.4886H93.9778ZM95.4155 17.5021L95.3706 15.66C95.6851 15.1957 96.0445 14.7838 96.4489 14.4244C96.8683 14.065 97.2876 13.7804 97.7069 13.5707C98.1413 13.3611 98.5381 13.2562 98.8976 13.2562C99.1672 13.2562 99.3693 13.2787 99.5041 13.3236C99.6239 13.3536 99.6913 13.4285 99.7063 13.5483C99.7363 13.8628 99.7438 14.1848 99.7288 14.5143C99.7288 14.8437 99.7063 15.1583 99.6614 15.4578C99.6314 15.6225 99.5341 15.6824 99.3693 15.6375C99.2495 15.6075 99.1222 15.5851 98.9874 15.5701C98.8527 15.5551 98.7104 15.5476 98.5606 15.5476C98.1862 15.5476 97.8118 15.63 97.4374 15.7948C97.063 15.9595 96.7035 16.1916 96.3591 16.4912C96.0146 16.7757 95.7001 17.1127 95.4155 17.5021ZM101.985 24.4886C101.836 24.4886 101.761 24.4138 101.761 24.264V16.2665C101.761 15.8621 101.746 15.4428 101.716 15.0085C101.701 14.5592 101.663 14.1548 101.603 13.7954C101.573 13.6157 101.656 13.5258 101.85 13.5258H103.198C103.333 13.5258 103.408 13.5782 103.423 13.6831C103.453 13.9077 103.49 14.1473 103.535 14.4019C103.58 14.6565 103.61 14.9186 103.625 15.1882C104.299 14.5143 104.936 14.0275 105.535 13.728C106.134 13.4135 106.778 13.2562 107.467 13.2562C108.23 13.2562 108.845 13.4359 109.309 13.7954C109.788 14.1398 110.125 14.6565 110.32 15.3455C111.039 14.6116 111.705 14.0799 112.319 13.7505C112.933 13.421 113.6 13.2562 114.318 13.2562C115.322 13.2562 116.078 13.5707 116.587 14.1998C117.112 14.8288 117.374 15.7573 117.374 16.9854V24.264C117.374 24.4138 117.299 24.4886 117.149 24.4886H115.689C115.539 24.4886 115.464 24.4138 115.464 24.264V17.0977C115.464 16.3788 115.329 15.8397 115.06 15.4802C114.805 15.1208 114.401 14.9411 113.847 14.9411C113.352 14.9411 112.843 15.0983 112.319 15.4129C111.81 15.7124 111.211 16.1916 110.522 16.8506V24.264C110.522 24.4138 110.447 24.4886 110.297 24.4886H108.837C108.687 24.4886 108.612 24.4138 108.612 24.264V17.0977C108.612 16.3788 108.478 15.8397 108.208 15.4802C107.953 15.1208 107.549 14.9411 106.995 14.9411C106.501 14.9411 105.991 15.0983 105.467 15.4129C104.958 15.7124 104.359 16.1916 103.67 16.8506V24.264C103.67 24.4138 103.595 24.4886 103.445 24.4886H101.985ZM127.095 24.4886C127.005 24.4886 126.945 24.4587 126.915 24.3988C126.885 24.3389 126.855 24.264 126.825 24.1741C126.81 24.0543 126.773 23.7997 126.713 23.4103C126.668 23.006 126.638 22.6465 126.623 22.332L126.556 21.4784V17.0079C126.556 16.259 126.406 15.7274 126.106 15.4129C125.807 15.0983 125.283 14.9411 124.534 14.9411C123.186 14.9411 122.512 15.4054 122.512 16.3339C122.512 16.4837 122.445 16.5586 122.31 16.5586H120.827C120.677 16.5586 120.595 16.4163 120.58 16.1317C120.505 15.2781 120.835 14.5891 121.568 14.065C122.317 13.5258 123.328 13.2562 124.601 13.2562C125.904 13.2562 126.87 13.5632 127.499 14.1773C128.143 14.7913 128.465 15.7199 128.465 16.9629V21.7704C128.465 22.2946 128.48 22.7663 128.51 23.1857C128.54 23.5901 128.577 23.942 128.622 24.2415C128.652 24.4063 128.577 24.4886 128.398 24.4886H127.095ZM122.804 24.7582C121.935 24.7582 121.269 24.4961 120.805 23.972C120.355 23.4478 120.131 22.684 120.131 21.6805C120.131 20.9018 120.28 20.2653 120.58 19.771C120.895 19.2768 121.389 18.8949 122.063 18.6253C122.752 18.3557 123.665 18.176 124.803 18.0862L126.915 17.9064V19.3667L124.758 19.5464C123.725 19.6362 123.014 19.8234 122.624 20.108C122.235 20.3926 122.04 20.8718 122.04 21.5458C122.04 22.055 122.145 22.4369 122.355 22.6915C122.564 22.9461 122.879 23.0734 123.298 23.0734C123.792 23.0734 124.309 22.9086 124.848 22.5791C125.387 22.2347 126.099 21.6057 126.982 20.6921V22.377C126.458 22.9461 125.964 23.4103 125.5 23.7698C125.051 24.1142 124.609 24.3613 124.174 24.5111C123.74 24.6759 123.283 24.7582 122.804 24.7582ZM132.063 24.4886C131.913 24.4886 131.838 24.4138 131.838 24.264V9.36981C131.838 9.22004 131.913 9.14516 132.063 9.14516H133.523C133.673 9.14516 133.748 9.22004 133.748 9.36981V24.264C133.748 24.4138 133.673 24.4886 133.523 24.4886H132.063ZM141.954 24.4886C141.804 24.4886 141.73 24.4138 141.73 24.264L142.044 9.99882C142.044 9.84906 142.119 9.77418 142.269 9.77418H144.65C144.755 9.77418 144.837 9.83408 144.897 9.9539L148.828 18.7826L152.692 9.9539C152.752 9.83408 152.835 9.77418 152.94 9.77418H155.321C155.471 9.77418 155.545 9.84906 155.545 9.99882L155.86 24.264C155.86 24.4138 155.785 24.4886 155.635 24.4886H154.22C154.07 24.4886 153.995 24.4138 153.995 24.264L153.771 15.2331C153.756 14.679 153.756 14.1324 153.771 13.5932C153.801 13.054 153.823 12.5074 153.838 11.9533H153.793C153.569 12.5074 153.336 13.054 153.097 13.5932C152.872 14.1324 152.633 14.679 152.378 15.2331L149.053 22.4443C149.008 22.5492 148.926 22.6016 148.806 22.6016H148.761C148.641 22.6016 148.559 22.5492 148.514 22.4443L145.144 15.1208C144.905 14.5966 144.672 14.0724 144.448 13.5483C144.238 13.0091 144.029 12.4774 143.819 11.9533H143.774C143.804 12.4774 143.819 13.0091 143.819 13.5483C143.834 14.0874 143.834 14.6191 143.819 15.1433L143.594 24.264C143.594 24.4138 143.519 24.4886 143.37 24.4886H141.954ZM163.443 24.7582C161.93 24.7582 160.777 24.3913 159.984 23.6574C159.205 22.9236 158.815 21.8078 158.815 20.3102V17.7043C158.815 16.2066 159.205 15.0909 159.984 14.357C160.762 13.6232 161.915 13.2562 163.443 13.2562C164.956 13.2562 166.101 13.6232 166.88 14.357C167.674 15.0909 168.071 16.2066 168.071 17.7043V20.3102C168.071 21.8078 167.681 22.9236 166.903 23.6574C166.124 24.3913 164.971 24.7582 163.443 24.7582ZM163.443 23.0734C164.402 23.0734 165.091 22.8337 165.51 22.3545C165.944 21.8603 166.161 21.1189 166.161 20.1305V17.884C166.161 16.8955 165.944 16.1617 165.51 15.6824C165.091 15.1882 164.402 14.9411 163.443 14.9411C162.485 14.9411 161.788 15.1882 161.354 15.6824C160.935 16.1617 160.725 16.8955 160.725 17.884V20.1305C160.725 21.1189 160.935 21.8603 161.354 22.3545C161.788 22.8337 162.485 23.0734 163.443 23.0734ZM174.993 24.7582C174.229 24.7582 173.615 24.6309 173.151 24.3763C172.702 24.1067 172.372 23.7099 172.162 23.1857C171.968 22.6615 171.87 22.01 171.87 21.2312V15.1657H170.141C169.991 15.1657 169.916 15.0909 169.916 14.9411V13.7505C169.916 13.6007 169.991 13.5258 170.141 13.5258H171.915L172.162 10.83C172.177 10.6803 172.26 10.6054 172.41 10.6054H173.533C173.683 10.6054 173.757 10.6803 173.757 10.83L173.78 13.5258H177.127C177.277 13.5258 177.352 13.6007 177.352 13.7505V14.9411C177.352 15.0909 177.277 15.1657 177.127 15.1657H173.78V21.1863C173.78 21.8902 173.9 22.3844 174.139 22.669C174.394 22.9536 174.821 23.0958 175.42 23.0958C175.719 23.0958 176.019 23.0659 176.318 23.006C176.618 22.9311 176.88 22.8412 177.105 22.7364C177.284 22.6615 177.374 22.7139 177.374 22.8936V24.1292C177.374 24.249 177.314 24.3314 177.195 24.3763C176.925 24.4812 176.61 24.571 176.251 24.6459C175.892 24.7208 175.472 24.7582 174.993 24.7582ZM180.02 24.4886C179.87 24.4886 179.795 24.4138 179.795 24.264V13.7505C179.795 13.6007 179.87 13.5258 180.02 13.5258H181.48C181.63 13.5258 181.705 13.6007 181.705 13.7505V24.264C181.705 24.4138 181.63 24.4886 181.48 24.4886H180.02ZM180.761 11.6837C180.327 11.6837 180.012 11.5714 179.818 11.3467C179.623 11.1071 179.526 10.8076 179.526 10.4481V10.2235C179.526 9.86404 179.623 9.57199 179.818 9.34734C180.012 9.10772 180.327 8.98791 180.761 8.98791C181.196 8.98791 181.51 9.10772 181.705 9.34734C181.899 9.57199 181.997 9.86404 181.997 10.2235V10.4481C181.997 10.8076 181.899 11.1071 181.705 11.3467C181.51 11.5714 181.196 11.6837 180.761 11.6837ZM189.418 24.7582C187.905 24.7582 186.752 24.3913 185.958 23.6574C185.18 22.9236 184.79 21.8078 184.79 20.3102V17.7043C184.79 16.2066 185.18 15.0909 185.958 14.357C186.737 13.6232 187.89 13.2562 189.418 13.2562C190.931 13.2562 192.076 13.6232 192.855 14.357C193.649 15.0909 194.046 16.2066 194.046 17.7043V20.3102C194.046 21.8078 193.656 22.9236 192.878 23.6574C192.099 24.3913 190.946 24.7582 189.418 24.7582ZM189.418 23.0734C190.377 23.0734 191.065 22.8337 191.485 22.3545C191.919 21.8603 192.136 21.1189 192.136 20.1305V17.884C192.136 16.8955 191.919 16.1617 191.485 15.6824C191.065 15.1882 190.377 14.9411 189.418 14.9411C188.46 14.9411 187.763 15.1882 187.329 15.6824C186.909 16.1617 186.7 16.8955 186.7 17.884V20.1305C186.7 21.1189 186.909 21.8603 187.329 22.3545C187.763 22.8337 188.46 23.0734 189.418 23.0734ZM204.562 24.4886C204.413 24.4886 204.338 24.4138 204.338 24.264V17.0977C204.338 16.3489 204.18 15.8022 203.866 15.4578C203.566 15.1133 203.11 14.9411 202.496 14.9411C201.912 14.9411 201.335 15.1133 200.766 15.4578C200.197 15.8022 199.485 16.3938 198.632 17.2325L198.654 15.5027C199.163 14.9636 199.643 14.5292 200.092 14.1998C200.556 13.8703 201.013 13.6306 201.462 13.4809C201.926 13.3311 202.413 13.2562 202.922 13.2562C204.001 13.2562 204.824 13.5707 205.394 14.1998C205.963 14.8288 206.247 15.7648 206.247 17.0079V24.264C206.247 24.4138 206.172 24.4886 206.023 24.4886H204.562ZM197.351 24.4886C197.201 24.4886 197.126 24.4138 197.126 24.264V16.2665C197.126 15.8771 197.104 15.4428 197.059 14.9636C197.029 14.4693 196.999 14.0874 196.969 13.8178C196.939 13.6232 197.014 13.5258 197.194 13.5258H198.564C198.699 13.5258 198.781 13.6007 198.811 13.7505C198.841 13.8703 198.871 14.0575 198.901 14.3121C198.931 14.5667 198.961 14.8363 198.991 15.1208C199.021 15.3904 199.036 15.6225 199.036 15.8172V16.4013V24.264C199.036 24.4138 198.961 24.4886 198.811 24.4886H197.351Z" fill="black"/>
<path d="M61.4125 24.4886C61.2628 24.4886 61.1879 24.4138 61.1879 24.264V11.504H57.1442C56.9945 11.504 56.9196 11.4291 56.9196 11.2793V9.99882C56.9196 9.84906 56.9945 9.77418 57.1442 9.77418H67.1411C67.2908 9.77418 67.3657 9.84906 67.3657 9.99882V11.2793C67.3657 11.4291 67.2908 11.504 67.1411 11.504H63.0974V24.264C63.0974 24.4138 63.0225 24.4886 62.8728 24.4886H61.4125ZM77.0568 24.4886C76.9071 24.4886 76.8322 24.4138 76.8322 24.264V17.0977C76.8322 16.3639 76.6824 15.8247 76.3829 15.4802C76.0834 15.1208 75.6266 14.9411 75.0125 14.9411C74.4135 14.9411 73.8069 15.1283 73.1929 15.5027C72.5789 15.8621 71.9124 16.4313 71.1935 17.21L71.216 15.4578C71.7102 14.9336 72.182 14.5143 72.6313 14.1998C73.0806 13.8703 73.5299 13.6306 73.9792 13.4809C74.4434 13.3311 74.9302 13.2562 75.4394 13.2562C76.5177 13.2562 77.3339 13.5707 77.888 14.1998C78.4572 14.8288 78.7417 15.7648 78.7417 17.0079V24.264C78.7417 24.4138 78.6668 24.4886 78.5171 24.4886H77.0568ZM69.8456 24.4886C69.6959 24.4886 69.621 24.4138 69.621 24.264V9.36981C69.621 9.22004 69.6959 9.14516 69.8456 9.14516H71.3058C71.4556 9.14516 71.5305 9.22004 71.5305 9.36981V24.264C71.5305 24.4138 71.4556 24.4886 71.3058 24.4886H69.8456ZM86.2823 24.7582C84.8446 24.7582 83.7363 24.4213 82.9575 23.7473C82.1937 23.0734 81.8118 22.0774 81.8118 20.7595V17.6144C81.8118 16.1916 82.1937 15.1133 82.9575 14.3795C83.7214 13.6306 84.8296 13.2562 86.2823 13.2562C87.7351 13.2562 88.8358 13.6232 89.5847 14.357C90.3485 15.0759 90.7304 16.1242 90.7304 17.5021V19.2543C90.7304 19.4041 90.6555 19.479 90.5057 19.479H83.7214V20.1979C83.7214 21.2013 83.931 21.9351 84.3504 22.3994C84.7697 22.8487 85.4511 23.0734 86.3947 23.0734C87.0986 23.0734 87.6377 22.961 88.0121 22.7364C88.4015 22.4968 88.5962 22.1523 88.5962 21.703C88.5962 21.5383 88.6786 21.4559 88.8433 21.4559H90.3036C90.4234 21.4559 90.4982 21.5233 90.5282 21.6581C90.5881 22.6166 90.2362 23.3729 89.4724 23.927C88.7085 24.4812 87.6452 24.7582 86.2823 24.7582ZM83.7214 17.8391H88.8209V17.7043C88.8209 16.7607 88.6112 16.0643 88.1919 15.615C87.7725 15.1657 87.1435 14.9411 86.3048 14.9411C85.4362 14.9411 84.7847 15.1732 84.3504 15.6375C83.931 16.1018 83.7214 16.7982 83.7214 17.7267V17.8391ZM93.9778 24.4886C93.828 24.4886 93.7531 24.4138 93.7531 24.264V16.1991C93.7531 15.7798 93.7382 15.3754 93.7082 14.986C93.6932 14.5817 93.6558 14.1773 93.5959 13.7729C93.5659 13.6082 93.6408 13.5258 93.8205 13.5258H95.1909C95.3406 13.5258 95.423 13.5932 95.438 13.728C95.4979 14.0125 95.5428 14.342 95.5728 14.7164C95.6027 15.0759 95.6177 15.3829 95.6177 15.6375L95.6626 16.8281V24.264C95.6626 24.4138 95.5878 24.4886 95.438 24.4886H93.9778ZM95.4155 17.5021L95.3706 15.66C95.6851 15.1957 96.0445 14.7838 96.4489 14.4244C96.8683 14.065 97.2876 13.7804 97.7069 13.5707C98.1413 13.3611 98.5381 13.2562 98.8976 13.2562C99.1672 13.2562 99.3693 13.2787 99.5041 13.3236C99.6239 13.3536 99.6913 13.4285 99.7063 13.5483C99.7363 13.8628 99.7438 14.1848 99.7288 14.5143C99.7288 14.8437 99.7063 15.1583 99.6614 15.4578C99.6314 15.6225 99.5341 15.6824 99.3693 15.6375C99.2495 15.6075 99.1222 15.5851 98.9874 15.5701C98.8527 15.5551 98.7104 15.5476 98.5606 15.5476C98.1862 15.5476 97.8118 15.63 97.4374 15.7948C97.063 15.9595 96.7035 16.1916 96.3591 16.4912C96.0146 16.7757 95.7001 17.1127 95.4155 17.5021ZM101.985 24.4886C101.836 24.4886 101.761 24.4138 101.761 24.264V16.2665C101.761 15.8621 101.746 15.4428 101.716 15.0085C101.701 14.5592 101.663 14.1548 101.603 13.7954C101.573 13.6157 101.656 13.5258 101.85 13.5258H103.198C103.333 13.5258 103.408 13.5782 103.423 13.6831C103.453 13.9077 103.49 14.1473 103.535 14.4019C103.58 14.6565 103.61 14.9186 103.625 15.1882C104.299 14.5143 104.936 14.0275 105.535 13.728C106.134 13.4135 106.778 13.2562 107.467 13.2562C108.23 13.2562 108.845 13.4359 109.309 13.7954C109.788 14.1398 110.125 14.6565 110.32 15.3455C111.039 14.6116 111.705 14.0799 112.319 13.7505C112.933 13.421 113.6 13.2562 114.318 13.2562C115.322 13.2562 116.078 13.5707 116.587 14.1998C117.112 14.8288 117.374 15.7573 117.374 16.9854V24.264C117.374 24.4138 117.299 24.4886 117.149 24.4886H115.689C115.539 24.4886 115.464 24.4138 115.464 24.264V17.0977C115.464 16.3788 115.329 15.8397 115.06 15.4802C114.805 15.1208 114.401 14.9411 113.847 14.9411C113.352 14.9411 112.843 15.0983 112.319 15.4129C111.81 15.7124 111.211 16.1916 110.522 16.8506V24.264C110.522 24.4138 110.447 24.4886 110.297 24.4886H108.837C108.687 24.4886 108.612 24.4138 108.612 24.264V17.0977C108.612 16.3788 108.478 15.8397 108.208 15.4802C107.953 15.1208 107.549 14.9411 106.995 14.9411C106.501 14.9411 105.991 15.0983 105.467 15.4129C104.958 15.7124 104.359 16.1916 103.67 16.8506V24.264C103.67 24.4138 103.595 24.4886 103.445 24.4886H101.985ZM127.095 24.4886C127.005 24.4886 126.945 24.4587 126.915 24.3988C126.885 24.3389 126.855 24.264 126.825 24.1741C126.81 24.0543 126.773 23.7997 126.713 23.4103C126.668 23.006 126.638 22.6465 126.623 22.332L126.556 21.4784V17.0079C126.556 16.259 126.406 15.7274 126.106 15.4129C125.807 15.0983 125.283 14.9411 124.534 14.9411C123.186 14.9411 122.512 15.4054 122.512 16.3339C122.512 16.4837 122.445 16.5586 122.31 16.5586H120.827C120.677 16.5586 120.595 16.4163 120.58 16.1317C120.505 15.2781 120.835 14.5891 121.568 14.065C122.317 13.5258 123.328 13.2562 124.601 13.2562C125.904 13.2562 126.87 13.5632 127.499 14.1773C128.143 14.7913 128.465 15.7199 128.465 16.9629V21.7704C128.465 22.2946 128.48 22.7663 128.51 23.1857C128.54 23.5901 128.577 23.942 128.622 24.2415C128.652 24.4063 128.577 24.4886 128.398 24.4886H127.095ZM122.804 24.7582C121.935 24.7582 121.269 24.4961 120.805 23.972C120.355 23.4478 120.131 22.684 120.131 21.6805C120.131 20.9018 120.28 20.2653 120.58 19.771C120.895 19.2768 121.389 18.8949 122.063 18.6253C122.752 18.3557 123.665 18.176 124.803 18.0862L126.915 17.9064V19.3667L124.758 19.5464C123.725 19.6362 123.014 19.8234 122.624 20.108C122.235 20.3926 122.04 20.8718 122.04 21.5458C122.04 22.055 122.145 22.4369 122.355 22.6915C122.564 22.9461 122.879 23.0734 123.298 23.0734C123.792 23.0734 124.309 22.9086 124.848 22.5791C125.387 22.2347 126.099 21.6057 126.982 20.6921V22.377C126.458 22.9461 125.964 23.4103 125.5 23.7698C125.051 24.1142 124.609 24.3613 124.174 24.5111C123.74 24.6759 123.283 24.7582 122.804 24.7582ZM132.063 24.4886C131.913 24.4886 131.838 24.4138 131.838 24.264V9.36981C131.838 9.22004 131.913 9.14516 132.063 9.14516H133.523C133.673 9.14516 133.748 9.22004 133.748 9.36981V24.264C133.748 24.4138 133.673 24.4886 133.523 24.4886H132.063ZM141.954 24.4886C141.804 24.4886 141.73 24.4138 141.73 24.264L142.044 9.99882C142.044 9.84906 142.119 9.77418 142.269 9.77418H144.65C144.755 9.77418 144.837 9.83408 144.897 9.9539L148.828 18.7826L152.692 9.9539C152.752 9.83408 152.835 9.77418 152.94 9.77418H155.321C155.471 9.77418 155.545 9.84906 155.545 9.99882L155.86 24.264C155.86 24.4138 155.785 24.4886 155.635 24.4886H154.22C154.07 24.4886 153.995 24.4138 153.995 24.264L153.771 15.2331C153.756 14.679 153.756 14.1324 153.771 13.5932C153.801 13.054 153.823 12.5074 153.838 11.9533H153.793C153.569 12.5074 153.336 13.054 153.097 13.5932C152.872 14.1324 152.633 14.679 152.378 15.2331L149.053 22.4443C149.008 22.5492 148.926 22.6016 148.806 22.6016H148.761C148.641 22.6016 148.559 22.5492 148.514 22.4443L145.144 15.1208C144.905 14.5966 144.672 14.0724 144.448 13.5483C144.238 13.0091 144.029 12.4774 143.819 11.9533H143.774C143.804 12.4774 143.819 13.0091 143.819 13.5483C143.834 14.0874 143.834 14.6191 143.819 15.1433L143.594 24.264C143.594 24.4138 143.519 24.4886 143.37 24.4886H141.954ZM163.443 24.7582C161.93 24.7582 160.777 24.3913 159.984 23.6574C159.205 22.9236 158.815 21.8078 158.815 20.3102V17.7043C158.815 16.2066 159.205 15.0909 159.984 14.357C160.762 13.6232 161.915 13.2562 163.443 13.2562C164.956 13.2562 166.101 13.6232 166.88 14.357C167.674 15.0909 168.071 16.2066 168.071 17.7043V20.3102C168.071 21.8078 167.681 22.9236 166.903 23.6574C166.124 24.3913 164.971 24.7582 163.443 24.7582ZM163.443 23.0734C164.402 23.0734 165.091 22.8337 165.51 22.3545C165.944 21.8603 166.161 21.1189 166.161 20.1305V17.884C166.161 16.8955 165.944 16.1617 165.51 15.6824C165.091 15.1882 164.402 14.9411 163.443 14.9411C162.485 14.9411 161.788 15.1882 161.354 15.6824C160.935 16.1617 160.725 16.8955 160.725 17.884V20.1305C160.725 21.1189 160.935 21.8603 161.354 22.3545C161.788 22.8337 162.485 23.0734 163.443 23.0734ZM174.993 24.7582C174.229 24.7582 173.615 24.6309 173.151 24.3763C172.702 24.1067 172.372 23.7099 172.162 23.1857C171.968 22.6615 171.87 22.01 171.87 21.2312V15.1657H170.141C169.991 15.1657 169.916 15.0909 169.916 14.9411V13.7505C169.916 13.6007 169.991 13.5258 170.141 13.5258H171.915L172.162 10.83C172.177 10.6803 172.26 10.6054 172.41 10.6054H173.533C173.683 10.6054 173.757 10.6803 173.757 10.83L173.78 13.5258H177.127C177.277 13.5258 177.352 13.6007 177.352 13.7505V14.9411C177.352 15.0909 177.277 15.1657 177.127 15.1657H173.78V21.1863C173.78 21.8902 173.9 22.3844 174.139 22.669C174.394 22.9536 174.821 23.0958 175.42 23.0958C175.719 23.0958 176.019 23.0659 176.318 23.006C176.618 22.9311 176.88 22.8412 177.105 22.7364C177.284 22.6615 177.374 22.7139 177.374 22.8936V24.1292C177.374 24.249 177.314 24.3314 177.195 24.3763C176.925 24.4812 176.61 24.571 176.251 24.6459C175.892 24.7208 175.472 24.7582 174.993 24.7582ZM180.02 24.4886C179.87 24.4886 179.795 24.4138 179.795 24.264V13.7505C179.795 13.6007 179.87 13.5258 180.02 13.5258H181.48C181.63 13.5258 181.705 13.6007 181.705 13.7505V24.264C181.705 24.4138 181.63 24.4886 181.48 24.4886H180.02ZM180.761 11.6837C180.327 11.6837 180.012 11.5714 179.818 11.3467C179.623 11.1071 179.526 10.8076 179.526 10.4481V10.2235C179.526 9.86404 179.623 9.57199 179.818 9.34734C180.012 9.10772 180.327 8.98791 180.761 8.98791C181.196 8.98791 181.51 9.10772 181.705 9.34734C181.899 9.57199 181.997 9.86404 181.997 10.2235V10.4481C181.997 10.8076 181.899 11.1071 181.705 11.3467C181.51 11.5714 181.196 11.6837 180.761 11.6837ZM189.418 24.7582C187.905 24.7582 186.752 24.3913 185.958 23.6574C185.18 22.9236 184.79 21.8078 184.79 20.3102V17.7043C184.79 16.2066 185.18 15.0909 185.958 14.357C186.737 13.6232 187.89 13.2562 189.418 13.2562C190.931 13.2562 192.076 13.6232 192.855 14.357C193.649 15.0909 194.046 16.2066 194.046 17.7043V20.3102C194.046 21.8078 193.656 22.9236 192.878 23.6574C192.099 24.3913 190.946 24.7582 189.418 24.7582ZM189.418 23.0734C190.377 23.0734 191.065 22.8337 191.485 22.3545C191.919 21.8603 192.136 21.1189 192.136 20.1305V17.884C192.136 16.8955 191.919 16.1617 191.485 15.6824C191.065 15.1882 190.377 14.9411 189.418 14.9411C188.46 14.9411 187.763 15.1882 187.329 15.6824C186.909 16.1617 186.7 16.8955 186.7 17.884V20.1305C186.7 21.1189 186.909 21.8603 187.329 22.3545C187.763 22.8337 188.46 23.0734 189.418 23.0734ZM204.562 24.4886C204.413 24.4886 204.338 24.4138 204.338 24.264V17.0977C204.338 16.3489 204.18 15.8022 203.866 15.4578C203.566 15.1133 203.11 14.9411 202.496 14.9411C201.912 14.9411 201.335 15.1133 200.766 15.4578C200.197 15.8022 199.485 16.3938 198.632 17.2325L198.654 15.5027C199.163 14.9636 199.643 14.5292 200.092 14.1998C200.556 13.8703 201.013 13.6306 201.462 13.4809C201.926 13.3311 202.413 13.2562 202.922 13.2562C204.001 13.2562 204.824 13.5707 205.394 14.1998C205.963 14.8288 206.247 15.7648 206.247 17.0079V24.264C206.247 24.4138 206.172 24.4886 206.023 24.4886H204.562ZM197.351 24.4886C197.201 24.4886 197.126 24.4138 197.126 24.264V16.2665C197.126 15.8771 197.104 15.4428 197.059 14.9636C197.029 14.4693 196.999 14.0874 196.969 13.8178C196.939 13.6232 197.014 13.5258 197.194 13.5258H198.564C198.699 13.5258 198.781 13.6007 198.811 13.7505C198.841 13.8703 198.871 14.0575 198.901 14.3121C198.931 14.5667 198.961 14.8363 198.991 15.1208C199.021 15.3904 199.036 15.6225 199.036 15.8172V16.4013V24.264C199.036 24.4138 198.961 24.4886 198.811 24.4886H197.351Z" fill="#22304B"/>
<path d="M63.0075 45.7582C61.9143 45.7582 60.9782 45.5486 60.1994 45.1292C59.4207 44.7099 58.8216 44.1108 58.4022 43.332C57.9829 42.5383 57.7732 41.5873 57.7732 40.479V35.7838C57.7732 34.1364 58.2749 32.8484 59.2784 31.9199C60.2818 30.9764 61.6597 30.5046 63.4119 30.5046C64.5951 30.5046 65.6135 30.7068 66.4671 31.1111C67.3358 31.5005 67.9798 32.0547 68.3991 32.7735C68.8334 33.4924 68.9757 34.3461 68.8259 35.3345C68.811 35.4843 68.7286 35.5592 68.5788 35.5592H67.1186C66.9539 35.5592 66.8865 35.4843 66.9164 35.3345C66.9614 34.6456 66.8565 34.069 66.6019 33.6047C66.3473 33.1405 65.9579 32.7885 65.4337 32.5489C64.9096 32.3093 64.2506 32.1895 63.4568 32.1895C62.2138 32.1895 61.2703 32.489 60.6263 33.0881C59.9973 33.6871 59.6827 34.5782 59.6827 35.7614V40.5015C59.6827 41.6996 59.9823 42.5982 60.5813 43.1972C61.1804 43.7813 62.0865 44.0734 63.2996 44.0734C64.5426 44.0734 65.4862 43.7663 66.1302 43.1523C66.7891 42.5383 67.1186 41.6546 67.1186 40.5015V39.6478H63.6141C63.4643 39.6478 63.3894 39.5729 63.3894 39.4231V38.21C63.3894 38.0603 63.4643 37.9854 63.6141 37.9854H68.6687C68.8184 37.9854 68.8933 38.0603 68.8933 38.21V42.6356C68.8933 43.0999 68.9008 43.5492 68.9158 43.9835C68.9457 44.4028 68.9907 44.8222 69.0506 45.2415C69.0656 45.3164 69.0506 45.3763 69.0057 45.4213C68.9757 45.4662 68.9233 45.4886 68.8484 45.4886H67.6578C67.5979 45.4886 67.5454 45.4737 67.5005 45.4437C67.4556 45.4138 67.4256 45.3688 67.4107 45.3089C67.3807 45.1142 67.3507 44.8971 67.3208 44.6574C67.2908 44.4178 67.2684 44.1632 67.2534 43.8936H67.2309C66.9464 44.313 66.5869 44.6649 66.1526 44.9495C65.7333 45.2191 65.254 45.4213 64.7149 45.556C64.1907 45.6908 63.6216 45.7582 63.0075 45.7582ZM72.7195 45.4886C72.5698 45.4886 72.4949 45.4138 72.4949 45.264V37.1991C72.4949 36.7798 72.4799 36.3754 72.45 35.986C72.435 35.5817 72.3976 35.1773 72.3376 34.7729C72.3077 34.6082 72.3826 34.5258 72.5623 34.5258H73.9326C74.0824 34.5258 74.1648 34.5932 74.1798 34.728C74.2397 35.0125 74.2846 35.342 74.3146 35.7164C74.3445 36.0759 74.3595 36.3829 74.3595 36.6375L74.4044 37.8281V45.264C74.4044 45.4138 74.3295 45.4886 74.1798 45.4886H72.7195ZM74.1573 38.5021L74.1124 36.66C74.4269 36.1957 74.7863 35.7838 75.1907 35.4244C75.61 35.065 76.0294 34.7804 76.4487 34.5707C76.883 34.3611 77.2799 34.2562 77.6393 34.2562C77.9089 34.2562 78.1111 34.2787 78.2459 34.3236C78.3657 34.3536 78.4331 34.4285 78.4481 34.5483C78.478 34.8628 78.4855 35.1848 78.4705 35.5143C78.4705 35.8437 78.4481 36.1583 78.4032 36.4578C78.3732 36.6225 78.2759 36.6824 78.1111 36.6375C77.9913 36.6075 77.864 36.5851 77.7292 36.5701C77.5944 36.5551 77.4521 36.5476 77.3024 36.5476C76.928 36.5476 76.5535 36.63 76.1791 36.7948C75.8047 36.9595 75.4453 37.1916 75.1008 37.4912C74.7564 37.7757 74.4419 38.1127 74.1573 38.5021ZM84.6187 45.7582C83.1061 45.7582 81.9529 45.3913 81.1591 44.6574C80.3804 43.9236 79.991 42.8078 79.991 41.3102V38.7043C79.991 37.2066 80.3804 36.0909 81.1591 35.357C81.9379 34.6232 83.0911 34.2562 84.6187 34.2562C86.1314 34.2562 87.2771 34.6232 88.0558 35.357C88.8496 36.0909 89.2465 37.2066 89.2465 38.7043V41.3102C89.2465 42.8078 88.8571 43.9236 88.0783 44.6574C87.2995 45.3913 86.1463 45.7582 84.6187 45.7582ZM84.6187 44.0734C85.5772 44.0734 86.2661 43.8337 86.6855 43.3545C87.1198 42.8603 87.337 42.1189 87.337 41.1305V38.884C87.337 37.8955 87.1198 37.1617 86.6855 36.6824C86.2661 36.1882 85.5772 35.9411 84.6187 35.9411C83.6602 35.9411 82.9638 36.1882 82.5295 36.6824C82.1101 37.1617 81.9005 37.8955 81.9005 38.884V41.1305C81.9005 42.1189 82.1101 42.8603 82.5295 43.3545C82.9638 43.8337 83.6602 44.0734 84.6187 44.0734ZM95.2925 45.7582C94.334 45.7582 93.6001 45.4362 93.0909 44.7922C92.5817 44.1482 92.3271 43.2197 92.3271 42.0066V34.7505C92.3271 34.6007 92.402 34.5258 92.5518 34.5258H94.012C94.1618 34.5258 94.2367 34.6007 94.2367 34.7505V41.9167C94.2367 42.6506 94.364 43.1972 94.6186 43.5567C94.8881 43.9011 95.3 44.0734 95.8541 44.0734C96.4083 44.0734 96.9624 43.9011 97.5165 43.5567C98.0856 43.2122 98.7895 42.6131 99.6282 41.7595L99.5833 43.5342C99.104 44.0284 98.6248 44.4403 98.1455 44.7698C97.6663 45.0993 97.187 45.3464 96.7078 45.5111C96.2435 45.6759 95.7717 45.7582 95.2925 45.7582ZM99.7855 45.4886C99.6207 45.4886 99.5309 45.4138 99.5159 45.264C99.471 44.9794 99.4335 44.6874 99.4036 44.3879C99.3736 44.0883 99.3511 43.7813 99.3362 43.4668L99.2238 42.5233V34.7505C99.2238 34.6007 99.2987 34.5258 99.4485 34.5258H100.909C101.058 34.5258 101.133 34.6007 101.133 34.7505V42.7479C101.133 43.1523 101.141 43.5716 101.156 44.006C101.186 44.4403 101.231 44.8596 101.291 45.264C101.321 45.4138 101.238 45.4886 101.043 45.4886H99.7855ZM109.423 45.7582C108.854 45.7582 108.262 45.6833 107.648 45.5336C107.034 45.3838 106.54 45.1816 106.165 44.927L106.098 43.3096C106.532 43.5492 107.011 43.7364 107.536 43.8712C108.06 44.006 108.554 44.0734 109.018 44.0734C109.887 44.0734 110.523 43.8188 110.928 43.3096C111.332 42.8004 111.534 42.0366 111.534 41.0181V38.547C111.534 37.6484 111.377 36.9894 111.063 36.5701C110.748 36.1508 110.284 35.9411 109.67 35.9411C109.146 35.9411 108.614 36.0983 108.075 36.4129C107.551 36.7124 106.854 37.2515 105.986 38.0303V36.2331C106.495 35.7689 106.967 35.3944 107.401 35.1099C107.85 34.8104 108.284 34.5932 108.704 34.4584C109.138 34.3236 109.595 34.2562 110.074 34.2562C111.182 34.2562 112.021 34.6007 112.59 35.2896C113.159 35.9785 113.444 37.0269 113.444 38.4347V41.2428C113.444 42.6955 113.099 43.8113 112.411 44.5901C111.722 45.3688 110.726 45.7582 109.423 45.7582ZM104.728 49.6446C104.578 49.6446 104.503 49.5698 104.503 49.42V37.0643C104.503 36.7199 104.488 36.338 104.458 35.9186C104.428 35.4993 104.391 35.1249 104.346 34.7954C104.331 34.6157 104.406 34.5258 104.57 34.5258H105.941C106.09 34.5258 106.173 34.6007 106.188 34.7505C106.218 34.8553 106.248 35.0051 106.278 35.1998C106.308 35.3944 106.33 35.5891 106.345 35.7838C106.36 35.9636 106.36 36.0909 106.345 36.1657L106.412 37.289V49.42C106.412 49.5698 106.338 49.6446 106.188 49.6446H104.728Z" fill="black"/>
<path d="M63.0075 45.7582C61.9143 45.7582 60.9782 45.5486 60.1994 45.1292C59.4207 44.7099 58.8216 44.1108 58.4022 43.332C57.9829 42.5383 57.7732 41.5873 57.7732 40.479V35.7838C57.7732 34.1364 58.2749 32.8484 59.2784 31.9199C60.2818 30.9764 61.6597 30.5046 63.4119 30.5046C64.5951 30.5046 65.6135 30.7068 66.4671 31.1111C67.3358 31.5005 67.9798 32.0547 68.3991 32.7735C68.8334 33.4924 68.9757 34.3461 68.8259 35.3345C68.811 35.4843 68.7286 35.5592 68.5788 35.5592H67.1186C66.9539 35.5592 66.8865 35.4843 66.9164 35.3345C66.9614 34.6456 66.8565 34.069 66.6019 33.6047C66.3473 33.1405 65.9579 32.7885 65.4337 32.5489C64.9096 32.3093 64.2506 32.1895 63.4568 32.1895C62.2138 32.1895 61.2703 32.489 60.6263 33.0881C59.9973 33.6871 59.6827 34.5782 59.6827 35.7614V40.5015C59.6827 41.6996 59.9823 42.5982 60.5813 43.1972C61.1804 43.7813 62.0865 44.0734 63.2996 44.0734C64.5426 44.0734 65.4862 43.7663 66.1302 43.1523C66.7891 42.5383 67.1186 41.6546 67.1186 40.5015V39.6478H63.6141C63.4643 39.6478 63.3894 39.5729 63.3894 39.4231V38.21C63.3894 38.0603 63.4643 37.9854 63.6141 37.9854H68.6687C68.8184 37.9854 68.8933 38.0603 68.8933 38.21V42.6356C68.8933 43.0999 68.9008 43.5492 68.9158 43.9835C68.9457 44.4028 68.9907 44.8222 69.0506 45.2415C69.0656 45.3164 69.0506 45.3763 69.0057 45.4213C68.9757 45.4662 68.9233 45.4886 68.8484 45.4886H67.6578C67.5979 45.4886 67.5454 45.4737 67.5005 45.4437C67.4556 45.4138 67.4256 45.3688 67.4107 45.3089C67.3807 45.1142 67.3507 44.8971 67.3208 44.6574C67.2908 44.4178 67.2684 44.1632 67.2534 43.8936H67.2309C66.9464 44.313 66.5869 44.6649 66.1526 44.9495C65.7333 45.2191 65.254 45.4213 64.7149 45.556C64.1907 45.6908 63.6216 45.7582 63.0075 45.7582ZM72.7195 45.4886C72.5698 45.4886 72.4949 45.4138 72.4949 45.264V37.1991C72.4949 36.7798 72.4799 36.3754 72.45 35.986C72.435 35.5817 72.3976 35.1773 72.3376 34.7729C72.3077 34.6082 72.3826 34.5258 72.5623 34.5258H73.9326C74.0824 34.5258 74.1648 34.5932 74.1798 34.728C74.2397 35.0125 74.2846 35.342 74.3146 35.7164C74.3445 36.0759 74.3595 36.3829 74.3595 36.6375L74.4044 37.8281V45.264C74.4044 45.4138 74.3295 45.4886 74.1798 45.4886H72.7195ZM74.1573 38.5021L74.1124 36.66C74.4269 36.1957 74.7863 35.7838 75.1907 35.4244C75.61 35.065 76.0294 34.7804 76.4487 34.5707C76.883 34.3611 77.2799 34.2562 77.6393 34.2562C77.9089 34.2562 78.1111 34.2787 78.2459 34.3236C78.3657 34.3536 78.4331 34.4285 78.4481 34.5483C78.478 34.8628 78.4855 35.1848 78.4705 35.5143C78.4705 35.8437 78.4481 36.1583 78.4032 36.4578C78.3732 36.6225 78.2759 36.6824 78.1111 36.6375C77.9913 36.6075 77.864 36.5851 77.7292 36.5701C77.5944 36.5551 77.4521 36.5476 77.3024 36.5476C76.928 36.5476 76.5535 36.63 76.1791 36.7948C75.8047 36.9595 75.4453 37.1916 75.1008 37.4912C74.7564 37.7757 74.4419 38.1127 74.1573 38.5021ZM84.6187 45.7582C83.1061 45.7582 81.9529 45.3913 81.1591 44.6574C80.3804 43.9236 79.991 42.8078 79.991 41.3102V38.7043C79.991 37.2066 80.3804 36.0909 81.1591 35.357C81.9379 34.6232 83.0911 34.2562 84.6187 34.2562C86.1314 34.2562 87.2771 34.6232 88.0558 35.357C88.8496 36.0909 89.2465 37.2066 89.2465 38.7043V41.3102C89.2465 42.8078 88.8571 43.9236 88.0783 44.6574C87.2995 45.3913 86.1463 45.7582 84.6187 45.7582ZM84.6187 44.0734C85.5772 44.0734 86.2661 43.8337 86.6855 43.3545C87.1198 42.8603 87.337 42.1189 87.337 41.1305V38.884C87.337 37.8955 87.1198 37.1617 86.6855 36.6824C86.2661 36.1882 85.5772 35.9411 84.6187 35.9411C83.6602 35.9411 82.9638 36.1882 82.5295 36.6824C82.1101 37.1617 81.9005 37.8955 81.9005 38.884V41.1305C81.9005 42.1189 82.1101 42.8603 82.5295 43.3545C82.9638 43.8337 83.6602 44.0734 84.6187 44.0734ZM95.2925 45.7582C94.334 45.7582 93.6001 45.4362 93.0909 44.7922C92.5817 44.1482 92.3271 43.2197 92.3271 42.0066V34.7505C92.3271 34.6007 92.402 34.5258 92.5518 34.5258H94.012C94.1618 34.5258 94.2367 34.6007 94.2367 34.7505V41.9167C94.2367 42.6506 94.364 43.1972 94.6186 43.5567C94.8881 43.9011 95.3 44.0734 95.8541 44.0734C96.4083 44.0734 96.9624 43.9011 97.5165 43.5567C98.0856 43.2122 98.7895 42.6131 99.6282 41.7595L99.5833 43.5342C99.104 44.0284 98.6248 44.4403 98.1455 44.7698C97.6663 45.0993 97.187 45.3464 96.7078 45.5111C96.2435 45.6759 95.7717 45.7582 95.2925 45.7582ZM99.7855 45.4886C99.6207 45.4886 99.5309 45.4138 99.5159 45.264C99.471 44.9794 99.4335 44.6874 99.4036 44.3879C99.3736 44.0883 99.3511 43.7813 99.3362 43.4668L99.2238 42.5233V34.7505C99.2238 34.6007 99.2987 34.5258 99.4485 34.5258H100.909C101.058 34.5258 101.133 34.6007 101.133 34.7505V42.7479C101.133 43.1523 101.141 43.5716 101.156 44.006C101.186 44.4403 101.231 44.8596 101.291 45.264C101.321 45.4138 101.238 45.4886 101.043 45.4886H99.7855ZM109.423 45.7582C108.854 45.7582 108.262 45.6833 107.648 45.5336C107.034 45.3838 106.54 45.1816 106.165 44.927L106.098 43.3096C106.532 43.5492 107.011 43.7364 107.536 43.8712C108.06 44.006 108.554 44.0734 109.018 44.0734C109.887 44.0734 110.523 43.8188 110.928 43.3096C111.332 42.8004 111.534 42.0366 111.534 41.0181V38.547C111.534 37.6484 111.377 36.9894 111.063 36.5701C110.748 36.1508 110.284 35.9411 109.67 35.9411C109.146 35.9411 108.614 36.0983 108.075 36.4129C107.551 36.7124 106.854 37.2515 105.986 38.0303V36.2331C106.495 35.7689 106.967 35.3944 107.401 35.1099C107.85 34.8104 108.284 34.5932 108.704 34.4584C109.138 34.3236 109.595 34.2562 110.074 34.2562C111.182 34.2562 112.021 34.6007 112.59 35.2896C113.159 35.9785 113.444 37.0269 113.444 38.4347V41.2428C113.444 42.6955 113.099 43.8113 112.411 44.5901C111.722 45.3688 110.726 45.7582 109.423 45.7582ZM104.728 49.6446C104.578 49.6446 104.503 49.5698 104.503 49.42V37.0643C104.503 36.7199 104.488 36.338 104.458 35.9186C104.428 35.4993 104.391 35.1249 104.346 34.7954C104.331 34.6157 104.406 34.5258 104.57 34.5258H105.941C106.09 34.5258 106.173 34.6007 106.188 34.7505C106.218 34.8553 106.248 35.0051 106.278 35.1998C106.308 35.3944 106.33 35.5891 106.345 35.7838C106.36 35.9636 106.36 36.0909 106.345 36.1657L106.412 37.289V49.42C106.412 49.5698 106.338 49.6446 106.188 49.6446H104.728Z" fill="#C12D2A"/>
</svg>
